<svg width="14" height="14" viewBox="0 0 14 14" fill="none" xmlns="http://www.w3.org/2000/svg">
<g id="icon / outline / house-heart">
<g id="Vector">
<path d="M6.99977 6.109C8.45577 4.64512 12.0966 7.20625 6.99977 10.4997C1.9029 7.20625 5.54377 4.64512 6.99977 6.109Z" fill="white"/>
<path d="M7.61887 1.31234C7.45478 1.1483 7.23226 1.05615 7.00024 1.05615C6.76822 1.05615 6.54571 1.1483 6.38162 1.31234L0.565493 7.12759C0.483459 7.20974 0.437418 7.32112 0.4375 7.43721C0.437582 7.55331 0.48378 7.66462 0.565931 7.74665C0.648082 7.82869 0.759456 7.87473 0.875553 7.87465C0.99165 7.87456 1.10296 7.82837 1.18499 7.74622L1.75024 7.18097V11.8123C1.75024 12.1604 1.88852 12.4943 2.13467 12.7404C2.38081 12.9866 2.71465 13.1248 3.06274 13.1248H10.9377C11.2858 13.1248 11.6197 12.9866 11.8658 12.7404C12.112 12.4943 12.2502 12.1604 12.2502 11.8123V7.18097L12.8155 7.74622C12.8975 7.82837 13.0088 7.87456 13.1249 7.87465C13.241 7.87473 13.3524 7.82869 13.4346 7.74665C13.5167 7.66462 13.5629 7.55331 13.563 7.43721C13.5631 7.32112 13.517 7.20974 13.435 7.12759L11.3752 5.06872V2.18734C11.3752 2.07131 11.3292 1.96003 11.2471 1.87798C11.1651 1.79593 11.0538 1.74984 10.9377 1.74984H10.0627C9.94671 1.74984 9.83543 1.79593 9.75338 1.87798C9.67134 1.96003 9.62524 2.07131 9.62524 2.18734V3.31872L7.61887 1.31234ZM11.3752 6.30597V11.8123C11.3752 11.9284 11.3292 12.0397 11.2471 12.1217C11.1651 12.2037 11.0538 12.2498 10.9377 12.2498H3.06274C2.94671 12.2498 2.83543 12.2037 2.75338 12.1217C2.67134 12.0397 2.62524 11.9284 2.62524 11.8123V6.30597L7.00024 1.93097L11.3752 6.30597Z" fill="white"/>
</g>
</g>
</svg>
