<svg width="24" height="24" viewBox="0 0 24 24" fill="none" xmlns="http://www.w3.org/2000/svg">
<g clip-path="url(#clip0_1571_18633)">
<path d="M14.6291 9.28965C15.5276 10.1896 17.2241 9.94515 18.4211 8.74665C19.6181 7.54815 19.8611 5.84865 18.9641 4.95015C18.0656 4.05015 16.3691 4.29315 15.1721 5.49165C13.9751 6.69165 13.7321 8.39115 14.6291 9.28965Z" fill="url(#paint0_linear_1571_18633)"/>
<path d="M23.7173 4.96792C23.1728 7.26892 21.7163 10.4069 18.2573 14.2949L17.8973 17.9069C17.8014 18.7723 17.4142 19.5795 16.7993 20.1959L13.2263 23.7749C13.1128 23.8896 12.966 23.9655 12.8068 23.9918C12.6476 24.018 12.4842 23.9933 12.34 23.921C12.1957 23.8488 12.078 23.7328 12.0036 23.5897C11.9292 23.4465 11.902 23.2835 11.9258 23.1239L12.3308 20.2754C12.3908 19.8554 12.3113 19.3859 12.1343 18.8414C12.0227 18.5082 11.8981 18.1794 11.7608 17.8559L11.6378 17.5529C10.4153 17.2574 9.2708 16.5599 8.3513 15.6374C7.4303 14.7149 6.7328 13.5689 6.4388 12.3449L6.1343 12.2204C5.81125 12.085 5.48354 11.9609 5.1518 11.8484C4.6073 11.6699 4.1393 11.5904 3.7193 11.6504L0.875301 12.0554C0.715861 12.0789 0.553091 12.0513 0.410209 11.9768C0.267328 11.9023 0.151633 11.7845 0.0796296 11.6404C0.00762605 11.4962 -0.0170085 11.333 0.00923995 11.174C0.0354884 11.0149 0.111279 10.8683 0.225801 10.7549L3.7988 7.17592C4.4138 6.56092 5.2193 6.17092 6.0848 6.07492H6.0938L9.6938 5.71792C13.5083 2.32492 16.6313 0.872917 18.9353 0.311917C20.2703 -0.0135832 21.3203 -0.0360832 22.0553 0.0299168C22.4213 0.0644168 22.7078 0.119917 22.9103 0.169417C23.0103 0.195417 23.0903 0.217917 23.1503 0.236917C23.4263 0.326917 23.5688 0.431917 23.6768 0.679417L23.7203 0.788917C23.8367 1.14011 23.9156 1.50263 23.9558 1.87042C24.0383 2.59792 24.0323 3.63742 23.7173 4.96792ZM16.4753 16.1804L16.5353 16.1204L16.3748 17.7419C16.3156 18.2598 16.083 18.7425 15.7148 19.1114L13.7678 21.0614L13.8488 20.4914C13.9568 19.7324 13.7978 19.0019 13.5908 18.3644C13.5148 18.1373 13.4328 17.9122 13.3448 17.6894C14.4518 17.5919 15.5378 17.1194 16.4753 16.1804ZM7.8083 7.49992C6.8708 8.43892 6.3983 9.52642 6.3023 10.6349C6.07952 10.5469 5.85444 10.4649 5.6273 10.3889C4.9913 10.1819 4.2623 10.0229 3.5033 10.1309L2.9333 10.2119L4.8833 8.26192C5.2508 7.89292 5.7323 7.66042 6.2483 7.60192L7.8683 7.44142L7.8083 7.49992ZM21.9173 1.55842C21.3473 1.50742 20.4668 1.51792 19.2983 1.80292C16.9613 2.37292 13.4228 4.04692 8.8928 8.58442C7.9628 9.51442 7.6943 10.5944 7.8623 11.6609C8.0228 12.6749 8.5868 13.7039 9.4343 14.5529C10.2803 15.4004 11.3093 15.9644 12.3203 16.1264C13.3853 16.2944 14.4638 16.0259 15.3923 15.0944C20.0108 10.4699 21.6803 6.92842 22.2263 4.61392C22.5008 3.45742 22.4963 2.59642 22.4333 2.04442C22.4176 1.90192 22.395 1.76026 22.3658 1.61992C22.2169 1.59186 22.0667 1.57133 21.9158 1.55842H21.9173Z" fill="url(#paint1_linear_1571_18633)"/>
<path d="M10.5134 18.2087C9.51562 17.6709 8.60359 16.9874 7.80742 16.1807C6.95399 15.3347 6.23967 14.3592 5.69092 13.2902C4.03792 14.7782 2.74342 20.8712 2.93242 21.0602C3.11992 21.2492 8.83642 19.7162 10.5134 18.2072V18.2087Z" fill="url(#paint2_linear_1571_18633)"/>
</g>
<defs>
<linearGradient id="paint0_linear_1571_18633" x1="0.267239" y1="12.0008" x2="23.7327" y2="12.0008" gradientUnits="userSpaceOnUse">
<stop stop-color="#CBD5E1"/>
<stop offset="1" stop-color="#64748B"/>
</linearGradient>
<linearGradient id="paint1_linear_1571_18633" x1="0.267239" y1="12.0008" x2="23.7327" y2="12.0008" gradientUnits="userSpaceOnUse">
<stop stop-color="#CBD5E1"/>
<stop offset="1" stop-color="#64748B"/>
</linearGradient>
<linearGradient id="paint2_linear_1571_18633" x1="0.267239" y1="12.0008" x2="23.7327" y2="12.0008" gradientUnits="userSpaceOnUse">
<stop stop-color="#CBD5E1"/>
<stop offset="1" stop-color="#64748B"/>
</linearGradient>
<clipPath id="clip0_1571_18633">
<rect width="24" height="24" fill="white"/>
</clipPath>
</defs>
</svg>
