<svg width="24" height="24" viewBox="0 0 24 24" fill="none" xmlns="http://www.w3.org/2000/svg">
<path d="M8.00701 2.385C6.57832 2.77848 5.1594 3.2066 3.75151 3.669C3.62285 3.71049 3.50848 3.78736 3.42147 3.89082C3.33446 3.99427 3.27833 4.12014 3.25951 4.254C2.42851 10.4895 4.34851 15.039 6.63901 18.036C7.60835 19.318 8.76475 20.4471 10.0695 21.3855C10.5885 21.7515 11.0475 22.0155 11.409 22.185C11.589 22.27 11.7355 22.329 11.8485 22.362C11.8983 22.3771 11.9489 22.3896 12 22.3995C12.0506 22.3896 12.1007 22.3771 12.15 22.362C12.264 22.328 12.411 22.269 12.591 22.185C12.951 22.0155 13.4115 21.75 13.9305 21.3855C15.2353 20.4471 16.3917 19.318 17.361 18.036C19.6515 15.0405 21.5715 10.4895 20.7405 4.254C20.7217 4.12014 20.6656 3.99427 20.5786 3.89082C20.4915 3.78736 20.3772 3.71049 20.2485 3.669C19.272 3.3495 17.6235 2.829 15.993 2.3865C14.328 1.935 12.7965 1.6005 12 1.6005C11.205 1.6005 9.67201 1.9335 8.00701 2.385ZM7.60801 0.84C9.23551 0.3975 10.965 0 12 0C13.035 0 14.7645 0.3975 16.392 0.84C18.057 1.29 19.7355 1.8225 20.7225 2.145C21.1352 2.28128 21.501 2.5312 21.778 2.86605C22.055 3.20091 22.232 3.60711 22.2885 4.038C23.1825 10.7535 21.108 15.7305 18.591 19.023C17.5232 20.4311 16.2506 21.6713 14.8155 22.7025C14.3198 23.0602 13.7938 23.3739 13.2435 23.64C12.8235 23.838 12.372 24 12 24C11.628 24 11.178 23.838 10.7565 23.64C10.2062 23.3739 9.68022 23.0602 9.18451 22.7025C7.74938 21.6713 6.47677 20.4311 5.40901 19.023C2.89201 15.7305 0.817508 10.7535 1.71151 4.038C1.76804 3.60711 1.94497 3.20091 2.22198 2.86605C2.49899 2.5312 2.86485 2.28128 3.27751 2.145C4.71039 1.67551 6.1543 1.24039 7.60801 0.84Z" fill="url(#paint0_linear_1571_7205)"/>
<path d="M14.25 9.74992C14.2502 10.2154 14.1061 10.6695 13.8375 11.0497C13.5688 11.4298 13.1889 11.7173 12.75 11.8724L13.3275 14.8574C13.3485 14.966 13.3453 15.0779 13.318 15.185C13.2907 15.2922 13.24 15.392 13.1696 15.4773C13.0992 15.5626 13.0109 15.6312 12.9108 15.6784C12.8108 15.7255 12.7016 15.7499 12.591 15.7499H11.409C11.2985 15.7497 11.1895 15.7251 11.0896 15.6779C10.9898 15.6307 10.9016 15.562 10.8314 15.4767C10.7612 15.3914 10.7107 15.2917 10.6834 15.1847C10.6562 15.0776 10.653 14.9659 10.674 14.8574L11.25 11.8724C10.8611 11.7349 10.5176 11.4932 10.2568 11.1737C9.99601 10.8541 9.82809 10.469 9.77138 10.0605C9.71466 9.65198 9.77133 9.23572 9.93518 8.85722C10.099 8.47872 10.3638 8.15254 10.7005 7.91432C11.0372 7.67611 11.4329 7.53502 11.8443 7.50649C12.2558 7.47796 12.6672 7.56307 13.0335 7.75253C13.3999 7.94198 13.7071 8.2285 13.9217 8.58076C14.1362 8.93302 14.2498 9.33747 14.25 9.74992Z" fill="url(#paint1_linear_1571_7205)"/>
<defs>
<linearGradient id="paint0_linear_1571_7205" x1="1.73467" y1="11.9998" x2="22.2656" y2="11.9998" gradientUnits="userSpaceOnUse">
<stop stop-color="#FFA98F"/>
<stop offset="1" stop-color="#FF5F2E"/>
</linearGradient>
<linearGradient id="paint1_linear_1571_7205" x1="1.73467" y1="11.9998" x2="22.2656" y2="11.9998" gradientUnits="userSpaceOnUse">
<stop stop-color="#FFA98F"/>
<stop offset="1" stop-color="#FF5F2E"/>
</linearGradient>
</defs>
</svg>
