<svg width="24" height="24" viewBox="0 0 24 24" fill="none" xmlns="http://www.w3.org/2000/svg">
<path d="M3.21848 4.28085C3.14875 4.21112 3.09344 4.12833 3.0557 4.03722C3.01796 3.94611 2.99854 3.84846 2.99854 3.74985C2.99854 3.65123 3.01796 3.55358 3.0557 3.46247C3.09344 3.37136 3.14875 3.28858 3.21848 3.21885C3.28821 3.14912 3.371 3.0938 3.46211 3.05606C3.55322 3.01833 3.65087 2.9989 3.74948 2.9989C3.8481 2.9989 3.94575 3.01833 4.03686 3.05606C4.12797 3.0938 4.21075 3.14912 4.28048 3.21885L11.9995 10.9393L19.7185 3.21885C19.7882 3.14912 19.871 3.0938 19.9621 3.05606C20.0532 3.01833 20.1509 2.9989 20.2495 2.9989C20.3481 2.9989 20.4457 3.01833 20.5369 3.05606C20.628 3.0938 20.7108 3.14912 20.7805 3.21885C20.8502 3.28858 20.9055 3.37136 20.9433 3.46247C20.981 3.55358 21.0004 3.65123 21.0004 3.74985C21.0004 3.84846 20.981 3.94611 20.9433 4.03722C20.9055 4.12833 20.8502 4.21112 20.7805 4.28085L13.06 11.9998L20.7805 19.7188C20.8502 19.7886 20.9055 19.8714 20.9433 19.9625C20.981 20.0536 21.0004 20.1512 21.0004 20.2498C21.0004 20.3485 20.981 20.4461 20.9433 20.5372C20.9055 20.6283 20.8502 20.7111 20.7805 20.7808C20.7108 20.8506 20.628 20.9059 20.5369 20.9436C20.4457 20.9814 20.3481 21.0008 20.2495 21.0008C20.1509 21.0008 20.0532 20.9814 19.9621 20.9436C19.871 20.9059 19.7882 20.8506 19.7185 20.7808L11.9995 13.0603L4.28048 20.7808C4.21075 20.8506 4.12797 20.9059 4.03686 20.9436C3.94575 20.9814 3.8481 21.0008 3.74948 21.0008C3.65087 21.0008 3.55322 20.9814 3.46211 20.9436C3.371 20.9059 3.28821 20.8506 3.21848 20.7808C3.14875 20.7111 3.09344 20.6283 3.0557 20.5372C3.01796 20.4461 2.99854 20.3485 2.99854 20.2498C2.99854 20.1512 3.01796 20.0536 3.0557 19.9625C3.09344 19.8714 3.14875 19.7886 3.21848 19.7188L10.939 11.9998L3.21848 4.28085Z" fill="white"/>
</svg>
