<svg width="86px" height="93px" viewBox="0 0 86 93" version="1.1" xmlns="http://www.w3.org/2000/svg"
  xmlns:xlink="http://www.w3.org/1999/xlink">
  <defs>
    <linearGradient x1="49.9586545%" y1="122.467936%" x2="49.9586545%" y2="31.122875%" id="linearGradient-rzsyabk99v-1">
      <stop stop-color="#FFF100" offset="0%"></stop>
      <stop stop-color="#F05A28" offset="100%"></stop>
    </linearGradient>
  </defs>
  <g id="Page-1" stroke="none" stroke-width="1" fill="none" fill-rule="evenodd">
    <g id="grafana" fill="url(#linearGradient-rzsyabk99v-1)" fill-rule="nonzero">
      <path
        d="M85.43,41 C85.29,39.44 85.02,37.64 84.5,35.65 C83.98,33.67 83.21,31.5 82.1,29.24 C80.97,27 79.5,24.66 77.6,22.4 C76.86,21.51 76.05,20.64 75.17,19.78 C76.48,14.58 73.58,10.08 73.58,10.08 C68.58,9.77 65.4,11.63 64.22,12.49 C64.02,12.41 63.83,12.32 63.63,12.24 C62.78,11.89 61.9,11.57 61,11.29 C60.1,11.01 59.18,10.75 58.24,10.52 C57.3,10.3 56.34,10.11 55.37,9.96 C55.2,9.93 55.03,9.91 54.86,9.89 C52.68,2.91 46.41,0 46.41,0 C39.43,4.43 38.1,10.63 38.1,10.63 C38.1,10.63 38.07,10.77 38.03,11 C37.64,11.11 37.26,11.22 36.87,11.34 C36.33,11.5 35.81,11.7 35.27,11.89 C34.74,12.1 34.21,12.3 33.68,12.53 C32.63,12.98 31.58,13.49 30.56,14.06 C29.57,14.62 28.6,15.23 27.65,15.89 C27.51,15.83 27.41,15.78 27.41,15.78 C17.74,12.09 9.15,16.53 9.15,16.53 C8.37,26.82 13.01,33.3 13.93,34.47 C13.7,35.11 13.49,35.75 13.29,36.4 C12.57,38.73 12.04,41.12 11.71,43.6 C11.66,43.95 11.62,44.31 11.58,44.67 C2.65,49.08 0,58.13 0,58.13 C7.46,66.71 16.15,67.24 16.15,67.24 C16.16,67.23 16.17,67.23 16.17,67.22 C17.28,69.19 18.56,71.07 19.99,72.82 C20.59,73.55 21.23,74.26 21.88,74.94 C19.16,82.71 22.26,89.19 22.26,89.19 C30.56,89.5 36.02,85.56 37.16,84.65 C37.99,84.93 38.82,85.18 39.67,85.4 C42.22,86.06 44.83,86.44 47.44,86.56 C48.09,86.59 48.74,86.6 49.4,86.6 L49.72,86.6 L49.93,86.59 L50.34,86.58 L50.75,86.56 L50.76,86.57 C54.67,92.15 61.55,92.94 61.55,92.94 C66.44,87.78 66.72,82.67 66.72,81.56 L66.72,81.56 C66.72,81.56 66.72,81.52 66.72,81.49 C66.72,81.4 66.72,81.33 66.72,81.33 C66.72,81.33 66.72,81.33 66.72,81.33 C66.72,81.25 66.71,81.18 66.71,81.09 C67.74,80.37 68.72,79.6 69.64,78.77 C71.6,77 73.31,74.98 74.73,72.81 C74.86,72.61 74.99,72.4 75.12,72.19 C80.66,72.51 84.56,68.76 84.56,68.76 C83.64,62.99 80.35,60.18 79.67,59.64 L79.67,59.64 C79.67,59.64 79.64,59.62 79.6,59.59 C79.56,59.56 79.54,59.54 79.54,59.54 C79.54,59.54 79.54,59.54 79.54,59.54 C79.5,59.52 79.46,59.49 79.42,59.46 C79.45,59.11 79.48,58.77 79.5,58.42 C79.54,57.8 79.56,57.18 79.56,56.56 L79.56,56.1 L79.56,55.87 L79.56,55.75 C79.56,55.59 79.56,55.65 79.56,55.59 L79.54,55.2 L79.51,54.68 C79.5,54.5 79.49,54.34 79.47,54.18 C79.46,54.02 79.44,53.86 79.42,53.7 L79.36,53.22 L79.29,52.74 C79.2,52.11 79.07,51.48 78.93,50.85 C78.35,48.36 77.38,46 76.1,43.88 C74.82,41.76 73.22,39.88 71.43,38.3 C69.63,36.71 67.62,35.44 65.51,34.49 C63.4,33.54 61.18,32.93 58.97,32.65 C57.87,32.51 56.76,32.45 55.67,32.46 L55.26,32.47 L55.16,32.47 C55.13,32.47 55.01,32.47 55.02,32.47 L54.85,32.48 L54.45,32.51 C54.3,32.52 54.14,32.53 54,32.55 C53.44,32.6 52.88,32.68 52.34,32.79 C50.15,33.2 48.08,33.99 46.25,35.08 C44.43,36.17 42.84,37.54 41.55,39.08 C40.26,40.63 39.26,42.34 38.57,44.11 C37.88,45.88 37.5,47.71 37.39,49.49 C37.36,49.93 37.35,50.38 37.36,50.81 C37.36,50.92 37.36,51.03 37.37,51.14 L37.38,51.5 C37.4,51.71 37.41,51.93 37.43,52.14 C37.52,53.04 37.68,53.9 37.92,54.74 C38.4,56.4 39.17,57.91 40.13,59.19 C41.08,60.47 42.22,61.53 43.43,62.36 C44.64,63.19 45.93,63.78 47.21,64.15 C48.49,64.53 49.76,64.69 50.96,64.69 C51.11,64.69 51.26,64.69 51.41,64.68 C51.49,64.68 51.57,64.67 51.65,64.67 C51.73,64.67 51.81,64.66 51.89,64.66 C52.02,64.65 52.14,64.63 52.27,64.62 C52.3,64.62 52.34,64.61 52.38,64.61 L52.5,64.59 C52.58,64.58 52.65,64.57 52.73,64.56 C52.89,64.54 53.02,64.51 53.17,64.48 C53.31,64.45 53.45,64.43 53.59,64.39 C53.87,64.33 54.13,64.25 54.39,64.16 C54.91,63.99 55.4,63.78 55.86,63.55 C56.32,63.31 56.74,63.05 57.13,62.78 C57.24,62.7 57.35,62.62 57.46,62.53 C57.88,62.2 57.95,61.59 57.61,61.18 C57.32,60.82 56.81,60.73 56.41,60.95 C56.31,61 56.21,61.06 56.11,61.11 C55.76,61.28 55.4,61.43 55.01,61.56 C54.62,61.68 54.22,61.78 53.8,61.86 C53.59,61.89 53.38,61.92 53.16,61.94 C53.05,61.95 52.94,61.96 52.84,61.96 C52.73,61.96 52.62,61.97 52.52,61.97 C52.42,61.97 52.31,61.97 52.21,61.96 C52.08,61.95 51.95,61.95 51.82,61.94 C51.82,61.94 51.75,61.94 51.81,61.94 L51.77,61.94 L51.68,61.93 C51.62,61.92 51.56,61.92 51.51,61.91 C51.39,61.9 51.28,61.88 51.16,61.87 C50.22,61.74 49.27,61.47 48.36,61.05 C47.44,60.64 46.56,60.06 45.77,59.35 C44.98,58.64 44.29,57.78 43.75,56.81 C43.21,55.84 42.83,54.77 42.65,53.64 C42.56,53.08 42.52,52.49 42.54,51.92 C42.55,51.76 42.55,51.61 42.56,51.45 C42.56,51.49 42.56,51.43 42.56,51.42 L42.56,51.36 L42.57,51.24 C42.58,51.16 42.58,51.09 42.59,51.01 C42.62,50.7 42.67,50.39 42.72,50.08 C43.15,47.62 44.38,45.22 46.29,43.4 C46.77,42.95 47.28,42.52 47.83,42.15 C48.38,41.77 48.96,41.44 49.56,41.16 C50.17,40.88 50.8,40.65 51.45,40.48 C52.1,40.31 52.77,40.19 53.44,40.13 C53.78,40.1 54.12,40.09 54.46,40.09 C54.55,40.09 54.62,40.09 54.69,40.09 L54.97,40.1 L55.14,40.11 C55.21,40.11 55.14,40.11 55.17,40.11 L55.24,40.11 L55.52,40.13 C56.25,40.19 56.98,40.29 57.7,40.46 C59.14,40.78 60.54,41.31 61.85,42.03 C64.46,43.48 66.69,45.74 68.05,48.47 C68.74,49.83 69.22,51.29 69.46,52.8 C69.52,53.18 69.56,53.56 69.59,53.94 L69.61,54.23 L69.62,54.52 C69.63,54.62 69.63,54.71 69.63,54.81 C69.63,54.91 69.64,55.01 69.63,55.08 L69.63,55.33 L69.62,55.61 C69.61,55.8 69.6,56.1 69.59,56.29 C69.56,56.71 69.52,57.12 69.47,57.54 C69.42,57.95 69.35,58.36 69.28,58.77 C69.2,59.18 69.11,59.58 69.01,59.98 C68.81,60.78 68.55,61.58 68.24,62.35 C67.63,63.9 66.81,65.37 65.83,66.73 C63.86,69.44 61.17,71.65 58.11,73.05 C56.58,73.74 54.96,74.25 53.31,74.52 C52.48,74.66 51.64,74.74 50.8,74.77 L50.64,74.78 L50.51,74.78 L50.24,74.78 L49.83,74.78 L49.62,74.78 C49.73,74.78 49.6,74.78 49.61,74.78 L49.53,74.78 C49.08,74.77 48.63,74.75 48.18,74.71 C46.38,74.58 44.61,74.26 42.89,73.76 C41.17,73.26 39.5,72.59 37.92,71.75 C34.76,70.06 31.94,67.75 29.73,64.96 C28.62,63.57 27.65,62.08 26.85,60.51 C26.05,58.94 25.42,57.29 24.95,55.61 C24.49,53.92 24.2,52.2 24.09,50.46 L24.07,50.13 L24.06,50.05 L24.06,49.98 L24.06,49.84 L24.05,49.55 L24.05,49.48 L24.05,49.38 L24.05,49.18 L24.04,48.78 L24.04,48.7 C24.04,48.71 24.04,48.71 24.04,48.67 L24.04,48.51 C24.04,48.3 24.05,48.09 24.05,47.87 C24.08,47.01 24.15,46.13 24.27,45.25 C24.38,44.37 24.53,43.48 24.71,42.6 C24.89,41.72 25.11,40.85 25.35,40 C25.84,38.29 26.45,36.63 27.18,35.06 C28.63,31.92 30.53,29.15 32.82,26.93 C33.39,26.37 33.98,25.84 34.6,25.35 C35.21,24.86 35.85,24.4 36.51,23.97 C37.16,23.54 37.84,23.14 38.54,22.78 C38.88,22.59 39.24,22.43 39.59,22.26 C39.77,22.18 39.95,22.1 40.13,22.02 C40.31,21.94 40.49,21.86 40.67,21.79 C41.39,21.48 42.14,21.23 42.89,20.99 C43.08,20.93 43.27,20.88 43.46,20.82 C43.65,20.76 43.84,20.72 44.03,20.66 C44.41,20.55 44.8,20.46 45.18,20.37 C45.37,20.32 45.57,20.28 45.76,20.24 C45.95,20.2 46.15,20.16 46.34,20.12 C46.54,20.08 46.73,20.05 46.93,20.01 L47.22,19.96 L47.51,19.92 C47.71,19.89 47.9,19.86 48.1,19.83 C48.32,19.79 48.54,19.78 48.76,19.74 C48.94,19.72 49.24,19.68 49.42,19.66 C49.56,19.65 49.7,19.63 49.84,19.62 L50.12,19.59 L50.26,19.58 L50.42,19.57 C50.64,19.56 50.86,19.54 51.09,19.53 L51.42,19.51 C51.42,19.51 51.54,19.51 51.44,19.51 L51.51,19.51 L51.65,19.5 C51.84,19.49 52.03,19.48 52.22,19.47 C52.97,19.45 53.72,19.45 54.47,19.47 C55.96,19.53 57.42,19.69 58.84,19.96 C61.68,20.49 64.35,21.4 66.77,22.6 C69.19,23.78 71.36,25.24 73.24,26.82 C73.36,26.92 73.47,27.02 73.59,27.12 C73.7,27.22 73.82,27.32 73.93,27.42 C74.16,27.62 74.38,27.83 74.6,28.03 C74.82,28.23 75.03,28.44 75.24,28.65 C75.45,28.86 75.66,29.07 75.85,29.28 C76.65,30.13 77.39,30.98 78.05,31.84 C79.39,33.56 80.46,35.3 81.31,36.94 C81.36,37.04 81.42,37.14 81.47,37.25 C81.52,37.35 81.57,37.45 81.62,37.56 C81.72,37.76 81.82,37.96 81.91,38.16 C82,38.36 82.1,38.56 82.18,38.75 C82.27,38.95 82.35,39.14 82.43,39.33 C82.75,40.1 83.04,40.83 83.27,41.52 C83.66,42.63 83.95,43.64 84.17,44.52 C84.26,44.87 84.59,45.1 84.95,45.07 C85.32,45.04 85.61,44.73 85.62,44.36 C85.56,43.36 85.54,42.26 85.43,41 Z"
        id="Path"></path>
    </g>
  </g>
</svg>