<svg width="28" height="28" viewBox="0 0 28 28" fill="none" xmlns="http://www.w3.org/2000/svg">
<g id="Tech logo">
<g id="Vector">
<path d="M22.1579 8.1535L20.0722 10.2393C23.4853 13.6524 23.4853 19.1512 20.0722 22.5011C16.6591 25.9142 11.1602 25.9142 7.81031 22.5011C4.39722 19.088 4.39722 13.5892 7.81031 10.2393L13.9728 4.07676V0L5.81934 8.1535C1.26855 12.7043 1.26855 20.0361 5.81934 24.5869C10.3701 29.1377 17.702 29.1377 22.1579 24.5869C26.7087 20.0045 26.7087 12.7043 22.1579 8.1535Z" fill="white"/>
<path d="M18.0812 7.64786C18.919 7.64786 19.5981 6.96871 19.5981 6.13093C19.5981 5.29316 18.919 4.61399 18.0812 4.61399C17.2434 4.61399 16.5643 5.29316 16.5643 6.13093C16.5643 6.96871 17.2434 7.64786 18.0812 7.64786Z" fill="white"/>
</g>
</g>
</svg>
