<?xml version="1.0" encoding="utf-8"?>
<!-- Generator: Adobe Illustrator 25.2.0, SVG Export Plug-In . SVG Version: 6.00 Build 0)  -->
<svg version="1.1" id="Calque_1" xmlns="http://www.w3.org/2000/svg" xmlns:xlink="http://www.w3.org/1999/xlink" x="0px"
	y="0px" viewBox="0 0 600 901.7" style="enable-background:new 0 0 600 901.7;" xml:space="preserve">
	<style type="text/css">
		.st0 {
			fill: #FFFFFF;
			stroke: #FFFFFF;
			stroke-miterlimit: 10;
		}

		.st1 {
			fill: #FFFFFF;
		}
	</style>
	<path class="st0" d="M97.3,393c6.7-1.4,13.6-2.4,20.5-3l0,0l0,0l53.6-5.1l-72.8-79.8c-21.9-24.1-34-55.3-34-87.9H4.4
	c0,47.6,17.7,93.3,49.8,128.5L97.3,393z" />
	<path class="st0" d="M285.3,509.9c-5.4,1-10.9,1.7-16.4,2.3l0,0l0,0l-58,5.5l72.6,79.6c21.9,24.1,34,55.3,34,87.9h60.3
	c0-47.6-17.7-93.2-49.8-128.5L285.3,509.9z" />
	<g>
		<path class="st1" d="M193.9,902.2c-42.3,0-76.7-34.4-76.7-76.7c0-30.9,18.3-58.6,46.8-70.7v-28.9c0-31.1-23.3-57.5-54.1-61.3
		l-9.2-1.2c-50-6.3-88.8-42.3-98.8-91.7c-10-49.4,11.7-97.6,55.4-122.8c19.9-11.5,41.5-18.4,64.4-20.6l138.3-13
		c14-1.3,27.3-5.6,39.5-12.6c24.8-14.4,29.7-39.2,26-57.6c-3.7-18.4-17.9-39.4-46.3-43l-9.2-1.2c-61.4-7.7-107.8-60.2-107.8-122.1
		v-32.6c-27.5-12.4-45.2-39.8-45.2-70c0-42.3,34.4-76.7,76.7-76.7s76.7,34.4,76.7,76.7c0,31-18.5,58.8-47,70.8v31.7
		c0,31.1,23.3,57.5,54.1,61.3l9.2,1.2c50,6.3,88.8,42.3,98.8,91.7c10,49.4-11.7,97.6-55.4,122.8c-19.9,11.5-41.5,18.4-64.4,20.6
		l-138.3,13c-14,1.3-27.3,5.6-39.5,12.6c-24.8,14.4-29.7,39.2-26,57.6c3.7,18.4,17.9,39.4,46.3,43l9.2,1.2
		c61.4,7.7,107.8,60.2,107.8,122.1v29.5c27.6,12.4,45.4,39.8,45.4,70.1C270.7,867.8,236.3,902.2,193.9,902.2z" />
		<path class="st1" d="M193.7,0c42.1,0,76.2,34.1,76.2,76.2c0,31.8-19.4,59-47,70.4v32.1c0,31.3,23.5,57.9,54.6,61.8l9.2,1.2
		C336.4,248,375,283.8,385,333c9.9,49.2-11.7,97.2-55.1,122.3c-19.8,11.4-41.4,18.4-64.2,20.5l-138.3,13
		c-14.1,1.3-27.4,5.6-39.7,12.7c-25.1,14.5-30,39.5-26.2,58.2c3.8,18.6,18,39.8,46.8,43.4l9.2,1.2c61.2,7.7,107.3,60,107.3,121.6
		v29.8c26.8,11.8,45.4,38.6,45.4,69.7c0,42.1-34.1,76.2-76.2,76.2c-42.1,0-76.2-34.1-76.2-76.2c0-31.7,19.3-58.8,46.8-70.3v-29.2
		c0-31.3-23.5-57.9-54.6-61.8l-9.2-1.2c-49.8-6.3-88.4-42.1-98.3-91.3c-9.9-49.2,11.7-97.2,55.1-122.3
		c19.8-11.4,41.4-18.4,64.2-20.5l138.3-13c14.1-1.3,27.4-5.6,39.7-12.7c25.1-14.5,30-39.5,26.2-58.2c-3.8-18.6-18-39.8-46.8-43.4
		l-9.2-1.2c-61.2-7.7-107.3-60-107.3-121.6v-32.9c-26.6-11.9-45.2-38.6-45.2-69.6C117.4,34.1,151.6,0,193.7,0 M193.7-1
		c-42.6,0-77.2,34.7-77.2,77.2c0,30.2,17.7,57.7,45.2,70.3v32.2c0,62.2,46.5,114.9,108.2,122.6l9.2,1.2
		c28.2,3.5,42.2,24.3,45.9,42.6c3.7,18.3-1.1,42.9-25.7,57.1c-12.1,7-25.4,11.2-39.3,12.6l-138.3,13C98.7,430,77,437,57,448.5
		C13.2,473.8-8.6,522.3,1.4,571.9c10,49.6,49,85.7,99.2,92l9.2,1.2c30.6,3.8,53.7,30,53.7,60.8v28.5c-28.4,12.2-46.8,40-46.8,71
		c0,42.6,34.7,77.2,77.2,77.2c42.6,0,77.2-34.7,77.2-77.2c0-30.3-17.8-57.9-45.4-70.4v-29.1c0-62.2-46.5-114.9-108.2-122.6l-9.2-1.2
		c-28.2-3.5-42.2-24.3-45.9-42.6c-3.7-18.3,1.1-42.9,25.7-57.1c12.1-7,25.4-11.2,39.3-12.6l138.3-13c22.9-2.2,44.6-9.1,64.6-20.7
		c43.8-25.3,65.7-73.7,55.6-123.4c-10-49.6-49-85.7-99.2-92l-9.2-1.2c-30.6-3.8-53.7-30-53.7-60.8v-31.4c28.6-12.2,47-40,47-71.1
		C270.9,33.7,236.3-1,193.7-1L193.7-1z" />
	</g>

</svg>