<svg width="64px" height="36px" viewBox="0 0 64 36" version="1.1" xmlns="http://www.w3.org/2000/svg"
  xmlns:xlink="http://www.w3.org/1999/xlink">
  <g id="Page-1" stroke="none" stroke-width="1" fill="none" fill-rule="evenodd">
    <g id="gatling" transform="translate(-0.002000, -2.003806)" fill="#F78557" fill-rule="nonzero">
      <g id="Groupe_1459" transform="translate(0.000000, 2.399806)">
        <path
          d="M50.889,31.582 C52.6619088,30.5376405 54.1883691,29.1227227 55.364,27.434 L57.422,27.434 C58.4683035,27.434 59.3165,26.5858035 59.3165,25.5395 C59.3165,24.4931965 58.4683035,23.645 57.422,23.645 L57.259,23.645 C57.6640044,22.4304237 57.90546,21.1673216 57.977,19.889 L60.002,19.889 C61.0483035,19.889 61.8965,19.0408035 61.8965,17.9945 C61.8965,16.9481965 61.0483035,16.1 60.002,16.1 L57.916,16.1 C57.7817572,14.8125717 57.4743137,13.5491608 57.002,12.344 L57.394,12.344 C58.4403035,12.344 59.2885,11.4958035 59.2885,10.4495 C59.2885,9.40319654 58.4403035,8.555 57.394,8.555 L54.847,8.555 C52.0899131,5.11425479 47.9221027,3.10830761 43.513,3.1 L40.28,3.1 C38.3002978,3.09641432 36.341836,3.50793317 34.531,4.308 L37.931,4.308 C45.4677012,4.30845013 51.706725,10.1655371 52.1826455,17.6871968 C52.6585661,25.2088565 47.2075385,31.805612 39.731,32.756 C39.306,32.789 38.882,32.821 38.425,32.821 L23.716,32.821 C26.099287,31.5124844 28.1455377,29.667538 29.693,27.432 C29.7997324,27.4593135 29.9099625,27.4704376 30.02,27.465 L42.82,27.465 C43.8663035,27.465 44.7145,26.6168035 44.7145,25.5705 C44.7145,24.5241965 43.8663035,23.676 42.82,23.676 L31.684,23.676 C32.1440465,22.4626488 32.4725931,21.2034436 32.664,19.92 L47.329,19.92 C48.3753035,19.92 49.2235,19.0718035 49.2235,18.0255 C49.2235,16.9791965 48.3753035,16.131 47.329,16.131 L32.829,16.131 C32.725196,14.8567739 32.4841327,13.5974778 32.11,12.375 L42.889,12.375 C43.9353035,12.375 44.7835,11.5268035 44.7835,10.4805 C44.7835,9.43419654 43.9353035,8.586 42.889,8.586 L30.443,8.586 C27.2988055,3.27408278 21.5887054,0.0114941187 15.416,0 L14.175,0 C8.54817387,0.0162168129 3.27286736,2.73890763 0,7.316 C3.61378045,3.13654621 9.17110826,1.18414003 14.6048456,2.18501047 C20.0385829,3.18588091 24.5355396,6.99024193 26.423,12.183 L18.523,12.183 C16.2301395,9.31855274 12.3700416,8.22834724 8.91746524,9.47011363 C5.46488885,10.71188 3.18346102,14.0109694 3.24032047,17.6796251 C3.29717993,21.3482807 5.67975072,24.5750841 9.16915114,25.7092588 C12.6585516,26.8434334 16.4830099,25.6341272 18.686,22.7 L10.516,22.7 C10.5152037,20.8893882 11.2341138,19.1527057 12.5144098,17.8724098 C13.7947057,16.5921138 15.5313882,15.8732037 17.342,15.874 L27.304,15.874 C27.3699155,16.4268971 27.4033063,16.983188 27.404,17.54 C27.402894,23.9676138 23.455139,29.7349835 17.4636058,32.0621599 C11.4720726,34.3893363 4.66639475,32.7987163 0.327,28.057 C3.62558288,32.3938666 8.75923667,34.9427566 14.208,34.949 L39.816,34.949 C53.077,34.949 63.822,34.165 63.822,33.149 C63.823,32.498 58.564,31.882 50.889,31.582 Z"
          id="Tracé_1456"></path>
      </g>
    </g>
  </g>
</svg>