<svg width="24" height="25" viewBox="0 0 24 25" fill="none" xmlns="http://www.w3.org/2000/svg">
<path d="M22 11.3203C22 6.11963 17.9579 2.5 12.1474 2.5C6.12653 2.5 2 6.5631 2 12.4947C2 18.6174 6.01689 22.5 12.3559 22.5C13.9051 22.5 15.3914 22.2844 16.4968 21.9128V20.4018C15.7239 20.7507 14.0633 20.9768 12.381 20.9768C7.12221 20.9768 3.73077 17.6814 3.73077 12.5666C3.73077 7.58151 7.18332 4.01096 11.9874 4.01096C16.9029 4.01096 20.2692 6.96976 20.2692 11.2958C20.2692 14.2441 19.2735 16.1494 17.7243 16.1494C16.84 16.1494 16.3368 15.6586 16.3368 14.8173V7.78659H14.482V9.24847H14.2843C13.8063 8.20552 12.7009 7.55872 11.4087 7.55872C8.89252 7.55872 7.13479 9.59553 7.13479 12.507C7.13479 15.5517 8.85478 17.6008 11.4105 17.6008C12.8483 17.6008 13.9536 16.9172 14.482 15.6954H14.6797C14.8253 16.8699 15.9432 17.7077 17.381 17.7077C20.2063 17.7077 22 15.2257 22 11.3203ZM9.10101 12.5543C9.10101 10.4562 10.0715 9.21166 11.7178 9.21166C13.3893 9.21166 14.4569 10.5053 14.4569 12.5543C14.4569 14.6034 13.3767 15.9093 11.6927 15.9093C10.0841 15.9093 9.10101 14.6385 9.10101 12.5543Z" fill="white"/>
</svg>
