<svg width="24" height="25" viewBox="0 0 24 25" fill="none" xmlns="http://www.w3.org/2000/svg">
<path opacity="0.85" d="M0 2.219C0 1.2695 0.789 0.5 1.7625 0.5H22.2375C23.211 0.5 24 1.2695 24 2.219V22.781C24 23.7305 23.211 24.5 22.2375 24.5H1.7625C0.789 24.5 0 23.7305 0 22.781V2.219ZM7.4145 20.591V9.7535H3.813V20.591H7.4145ZM5.6145 8.273C6.87 8.273 7.6515 7.442 7.6515 6.401C7.629 5.3375 6.8715 4.529 5.6385 4.529C4.4055 4.529 3.6 5.339 3.6 6.401C3.6 7.442 4.3815 8.273 5.5905 8.273H5.6145ZM12.9765 20.591V14.5385C12.9765 14.2145 13.0005 13.8905 13.0965 13.6595C13.356 13.013 13.9485 12.3425 14.9445 12.3425C16.248 12.3425 16.7685 13.3355 16.7685 14.7935V20.591H20.37V14.375C20.37 11.045 18.594 9.497 16.224 9.497C14.313 9.497 13.4565 10.547 12.9765 11.2865V11.324H12.9525L12.9765 11.2865V9.7535H9.3765C9.4215 10.7705 9.3765 20.591 9.3765 20.591H12.9765Z" fill="white"/>
</svg>
