<?xml version="1.0" encoding="UTF-8"?>
<svg width="167px" height="291px" viewBox="0 0 167 291" version="1.1" xmlns="http://www.w3.org/2000/svg" xmlns:xlink="http://www.w3.org/1999/xlink">
    <title>phone code</title>
    <g id="Page-1" stroke="none" stroke-width="1" fill="none" fill-rule="evenodd">
        <g id="NEW!" transform="translate(-183.000000, -296.000000)" stroke="#FEFEFE" stroke-width="1.5">
            <g id="Section-1" transform="translate(120.000000, 200.000000)">
                <g id="Group-15" transform="translate(64.000000, 97.000000)">
                    <path d="M103.566627,284 C113.10068,284.138224 121.25701,277.231143 122.612906,267.866652 L159.903974,10.4293342 C160.779675,4.38152391 155.536819,-0.795755094 149.445328,0.101628384 L60.0627088,13.2704711 C51.394753,14.5472502 45.3678695,21.1658865 43.7055218,30.0920802 L1.15762803,269.689138 C0.0741335525,275.789786 4.71019774,281.419222 10.9518593,281.582067 L103.566627,284 Z" id="Stroke-1"></path>
                    <path d="M135.962931,2.15600071 L149.581909,0.148632009 C158.481232,-1.16367879 166.141199,6.40674656 164.859167,15.2471222 L127.687206,271.401892 C126.183083,281.769839 117.05383,289.349773 106.507549,288.987548 L9.27953,285.520903 C3.45377446,285.313423 -0.848697115,280.052942 0.142439049,274.350701 L2.16042015,262.737874" id="Stroke-3"></path>
                    <path d="M13.8498438,261.60924 C10.2180901,261.553801 7.48692833,258.272525 8.08156102,254.682006 L45.2720327,30.1701528 C46.1354601,22.3143213 52.30996,16.9523632 60.2026718,15.9024936 L69.2664988,14.9175911 C69.975218,14.8638849 70.5741722,15.4338636 70.5594792,16.1441715 L70.4773715,20.2570272 C70.4773715,22.2571501 72.224105,23.8059677 74.2041973,23.5599587 L118.617555,18.0663338 C122.399695,17.5985701 125.239758,14.3787966 125.239758,10.5604588 C125.239758,8.54820864 126.747082,6.85732947 128.741868,6.6321099 L142.777101,5.04777691 C147.607627,4.50291881 151.640412,8.6989325 150.915271,13.5168987 L114.77405,253.84956 C113.973715,259.172537 109.368769,263.082696 103.998061,263 L13.8498438,261.60924 Z" id="Stroke-5"></path>
                    <path d="M50.6471309,64.6415637 L47.3689881,85.3513624 C46.7645674,89.1698149 49.3700549,92.755262 53.1885074,93.3596828 C53.7007057,93.4407584 54.2203273,93.4646663 54.7378065,93.4309664 L123.33916,88.9634294 C126.594423,88.7514364 129.271717,86.3189744 129.793973,83.0988922 L133.542368,59.9873444 C134.161295,56.1712164 131.569452,52.575894 127.753324,51.9569671 C127.153839,51.8597384 126.54425,51.8409384 125.939913,51.9010407 L56.8683064,58.7703269 C53.700887,59.085332 51.1447775,61.4976613 50.6471309,64.6415637 Z" id="Path-4"></path>
                    <path d="M88.0056093,80.5229121 C87.1072271,80.5229121 86.3491935,79.9223458 86.1110857,79.1011946 L82.4127509,79.1006257 L82.4127493,79.0891243 L80.8398207,79.0889098 L82.4123569,76.2221224 L82.4117868,72.057665 C82.4114745,69.7760043 83.948127,67.8532917 86.0436469,67.2668795 C86.0369792,67.2063996 86.0330915,67.1451447 86.0321132,67.0831794 L86.0317855,67.0505491 C86.0316365,65.9621209 86.9143807,65.0800813 88.0034954,65.0800813 C88.0143575,65.0800813 88.0250902,65.0800813 88.0358876,65.0803442 L88.0519867,65.0800813 L88.0682151,65.0800813 C89.1573299,65.0802386 90.0403157,65.9626675 90.0404646,67.0510957 L90.0402105,67.0837259 C90.0391845,67.1456909 90.0353136,67.2069447 90.0286624,67.2674228 C92.1243429,67.8544066 93.6615219,69.7775382 93.6618342,72.059199 L93.6624042,76.2235918 L95.2357253,79.0908727 L93.6627967,79.0906583 L93.6627983,79.1021596 L89.9645281,79.10172 C89.7265805,79.9228063 88.9687113,80.5229121 88.070329,80.5229121 L88.0380015,80.5225846 L88.0056093,80.5229121 Z" id="Stroke-1" transform="translate(88.037773, 72.801497) rotate(-2.000000) translate(-88.037773, -72.801497) "></path>
                    <polyline id="Stroke-7" points="50 287.599035 50 286 63.8633496 286.199104 64 288"></polyline>
                    <path d="M91,15.2238603 L91,15.4271144 C91,16.3774645 91.9756729,17.1096501 93.0769729,16.986442 L106.401694,15.488326 C107.315929,15.3855219 108,14.7184718 108,13.9297832 L108,13.5727153 C108,12.6153022 107.006904,11.8791929 105.899186,12.0165267 L92.5744646,13.6676718 C91.6693996,13.7791084 91,14.4422346 91,15.2238603 Z" id="Stroke-9"></path>
                    <path d="M85,16.499623 C85,15.6710229 84.3282232,15 83.500377,15 C82.6717768,15 82,15.6710229 82,16.499623 C82,17.3282232 82.6717768,18 83.500377,18 C84.3282232,18 85,17.3282232 85,16.499623 Z" id="Stroke-11"></path>
                    <path d="M121,10.500377 C121,9.67102287 120.328223,9 119.499623,9 C118.671023,9 118,9.67102287 118,10.500377 C118,11.3289771 118.671023,12 119.499623,12 C120.328223,12 121,11.3289771 121,10.500377 Z" id="Stroke-13"></path>
                </g>
            </g>
        </g>
    </g>
</svg>