<svg width="24" height="24" viewBox="0 0 24 24" fill="none" xmlns="http://www.w3.org/2000/svg">
<path d="M21.75 4.5C21.9489 4.5 22.1397 4.57902 22.2803 4.71967C22.421 4.86032 22.5 5.05109 22.5 5.25V18.75C22.5 18.9489 22.421 19.1397 22.2803 19.2803C22.1397 19.421 21.9489 19.5 21.75 19.5H2.25C2.05109 19.5 1.86032 19.421 1.71967 19.2803C1.57902 19.1397 1.5 18.9489 1.5 18.75V5.25C1.5 5.05109 1.57902 4.86032 1.71967 4.71967C1.86032 4.57902 2.05109 4.5 2.25 4.5H21.75ZM2.25 3C1.65326 3 1.08097 3.23705 0.65901 3.65901C0.237053 4.08097 0 4.65326 0 5.25V18.75C0 19.3467 0.237053 19.919 0.65901 20.341C1.08097 20.7629 1.65326 21 2.25 21H21.75C22.3467 21 22.919 20.7629 23.341 20.341C23.7629 19.919 24 19.3467 24 18.75V5.25C24 4.65326 23.7629 4.08097 23.341 3.65901C22.919 3.23705 22.3467 3 21.75 3H2.25Z" fill="url(#paint0_linear_1196_71781)"/>
<path d="M10.5001 8.24988C10.5001 8.05096 10.5791 7.8602 10.7197 7.71955C10.8604 7.57889 11.0512 7.49988 11.2501 7.49988H18.7501C18.949 7.49988 19.1397 7.57889 19.2804 7.71955C19.4211 7.8602 19.5001 8.05096 19.5001 8.24988C19.5001 8.44879 19.4211 8.63955 19.2804 8.78021C19.1397 8.92086 18.949 8.99988 18.7501 8.99988H11.2501C11.0512 8.99988 10.8604 8.92086 10.7197 8.78021C10.5791 8.63955 10.5001 8.44879 10.5001 8.24988ZM8.25607 6.96888C8.32591 7.03854 8.38133 7.12131 8.41914 7.21243C8.45695 7.30354 8.47641 7.40122 8.47641 7.49988C8.47641 7.59853 8.45695 7.69621 8.41914 7.78733C8.38133 7.87844 8.32591 7.96121 8.25607 8.03088L6.00607 10.2809C5.9364 10.3507 5.85364 10.4061 5.76252 10.4439C5.6714 10.4818 5.57372 10.5012 5.47507 10.5012C5.37642 10.5012 5.27874 10.4818 5.18762 10.4439C5.0965 10.4061 5.01374 10.3507 4.94407 10.2809L4.19407 9.53088C4.12434 9.46114 4.06902 9.37836 4.03128 9.28725C3.99355 9.19614 3.97412 9.09849 3.97412 8.99988C3.97412 8.80071 4.05324 8.60971 4.19407 8.46888C4.3349 8.32805 4.52591 8.24893 4.72507 8.24893C4.92423 8.24893 5.11524 8.32805 5.25607 8.46888L5.47507 8.68938L7.19407 6.96888C7.26374 6.89903 7.3465 6.84362 7.43762 6.80581C7.52874 6.768 7.62642 6.74854 7.72507 6.74854C7.82372 6.74854 7.9214 6.768 8.01252 6.80581C8.10364 6.84362 8.1864 6.89903 8.25607 6.96888ZM10.5001 14.2499C10.5001 14.051 10.5791 13.8602 10.7197 13.7195C10.8604 13.5789 11.0512 13.4999 11.2501 13.4999H18.7501C18.949 13.4999 19.1397 13.5789 19.2804 13.7195C19.4211 13.8602 19.5001 14.051 19.5001 14.2499C19.5001 14.4488 19.4211 14.6396 19.2804 14.7802C19.1397 14.9209 18.949 14.9999 18.7501 14.9999H11.2501C11.0512 14.9999 10.8604 14.9209 10.7197 14.7802C10.5791 14.6396 10.5001 14.4488 10.5001 14.2499ZM8.25607 12.9689C8.32591 13.0385 8.38133 13.1213 8.41914 13.2124C8.45695 13.3035 8.47641 13.4012 8.47641 13.4999C8.47641 13.5985 8.45695 13.6962 8.41914 13.7873C8.38133 13.8784 8.32591 13.9612 8.25607 14.0309L6.00607 16.2809C5.9364 16.3507 5.85364 16.4061 5.76252 16.4439C5.6714 16.4818 5.57372 16.5012 5.47507 16.5012C5.37642 16.5012 5.27874 16.4818 5.18762 16.4439C5.0965 16.4061 5.01374 16.3507 4.94407 16.2809L4.19407 15.5309C4.12434 15.4611 4.06902 15.3784 4.03128 15.2873C3.99355 15.1961 3.97412 15.0985 3.97412 14.9999C3.97412 14.9013 3.99355 14.8036 4.03128 14.7125C4.06902 14.6214 4.12434 14.5386 4.19407 14.4689C4.2638 14.3991 4.34658 14.3438 4.43769 14.3061C4.5288 14.2684 4.62645 14.2489 4.72507 14.2489C4.82368 14.2489 4.92133 14.2684 5.01244 14.3061C5.10355 14.3438 5.18634 14.3991 5.25607 14.4689L5.47507 14.6894L7.19407 12.9689C7.26374 12.899 7.3465 12.8436 7.43762 12.8058C7.52874 12.768 7.62642 12.7485 7.72507 12.7485C7.82372 12.7485 7.9214 12.768 8.01252 12.8058C8.10364 12.8436 8.1864 12.899 8.25607 12.9689Z" fill="url(#paint1_linear_1196_71781)"/>
<defs>
<linearGradient id="paint0_linear_1196_71781" x1="0.268197" y1="11.9999" x2="23.7321" y2="11.9999" gradientUnits="userSpaceOnUse">
<stop stop-color="#FFA98F"/>
<stop offset="1" stop-color="#FF5F2E"/>
</linearGradient>
<linearGradient id="paint1_linear_1196_71781" x1="0.268197" y1="11.9999" x2="23.7321" y2="11.9999" gradientUnits="userSpaceOnUse">
<stop stop-color="#FFA98F"/>
<stop offset="1" stop-color="#FF5F2E"/>
</linearGradient>
</defs>
</svg>
