<svg width="64" height="64" viewBox="0 0 64 64" fill="none" xmlns="http://www.w3.org/2000/svg">
<g id="icon / outline / chat-left-quote">
<g id="Vector">
<path d="M56 4C57.0609 4 58.0783 4.42143 58.8284 5.17157C59.5786 5.92172 60 6.93913 60 8V40C60 41.0609 59.5786 42.0783 58.8284 42.8284C58.0783 43.5786 57.0609 44 56 44H17.656C15.5344 44.0005 13.4999 44.8436 12 46.344L4 54.344V8C4 6.93913 4.42143 5.92172 5.17157 5.17157C5.92172 4.42143 6.93913 4 8 4H56ZM8 0C5.87827 0 3.84344 0.842855 2.34315 2.34315C0.842855 3.84344 0 5.87827 0 8V59.172C8.40595e-05 59.5677 0.11757 59.9546 0.337589 60.2835C0.557608 60.6125 0.870268 60.8687 1.236 61.0199C1.60173 61.1711 2.00408 61.2104 2.39214 61.1328C2.7802 61.0552 3.13652 60.8642 3.416 60.584L14.828 49.172C15.578 48.4218 16.5952 48.0002 17.656 48H56C58.1217 48 60.1566 47.1572 61.6569 45.6569C63.1571 44.1566 64 42.1217 64 40V8C64 5.87827 63.1571 3.84344 61.6569 2.34315C60.1566 0.842855 58.1217 0 56 0H8Z" fill="url(#paint0_linear_252_6724)"/>
<path d="M28.2641 19.0399C27.4849 17.8265 26.3329 16.8988 24.9813 16.3962C23.6297 15.8935 22.1515 15.8432 20.7688 16.2527C19.3861 16.6622 18.1737 17.5093 17.3138 18.6669C16.4538 19.8245 15.9928 21.2299 16.0001 22.6719C16.0008 23.8661 16.3222 25.0381 16.9307 26.0656C17.5391 27.0931 18.4124 27.9383 19.4591 28.513C20.5059 29.0877 21.6878 29.3707 22.8813 29.3325C24.0748 29.2943 25.2362 28.9363 26.2441 28.2959C25.7201 29.8519 24.7441 31.5119 23.1361 33.1759C22.8284 33.4942 22.6598 33.9216 22.6673 34.3642C22.6748 34.8068 22.8578 35.2283 23.1761 35.5359C23.4943 35.8436 23.9218 36.0122 24.3644 36.0047C24.807 35.9972 25.2284 35.8142 25.5361 35.4959C31.4801 29.3359 30.7081 22.6399 28.2641 19.0479V19.0399ZM44.2641 19.0399C43.4849 17.8265 42.333 16.8988 40.9813 16.3962C39.6297 15.8935 38.1515 15.8432 36.7688 16.2527C35.3861 16.6622 34.1737 17.5093 33.3138 18.6669C32.4538 19.8245 31.9928 21.2299 32.0001 22.6719C32.0008 23.8661 32.3222 25.0381 32.9307 26.0656C33.5391 27.0931 34.4124 27.9383 35.4591 28.513C36.5059 29.0877 37.6878 29.3707 38.8813 29.3325C40.0748 29.2943 41.2362 28.9363 42.2441 28.2959C41.7201 29.8519 40.7441 31.5119 39.1361 33.1759C38.8284 33.4942 38.6598 33.9216 38.6673 34.3642C38.6748 34.8068 38.8578 35.2283 39.1761 35.5359C39.4943 35.8436 39.9218 36.0122 40.3644 36.0047C40.807 35.9972 41.2284 35.8142 41.5361 35.4959C47.4801 29.3359 46.7081 22.6399 44.2641 19.0479V19.0399Z" fill="url(#paint1_linear_252_6724)"/>
</g>
</g>
<defs>
<linearGradient id="paint0_linear_252_6724" x1="0" y1="0" x2="41.3779" y2="46.9846" gradientUnits="userSpaceOnUse">
<stop stop-color="#94A3B8"/>
<stop offset="1" stop-color="white"/>
</linearGradient>
<linearGradient id="paint1_linear_252_6724" x1="0" y1="0" x2="41.3779" y2="46.9846" gradientUnits="userSpaceOnUse">
<stop stop-color="#94A3B8"/>
<stop offset="1" stop-color="white"/>
</linearGradient>
</defs>
</svg>
