<svg width="24" height="24" viewBox="0 0 24 24" fill="none" xmlns="http://www.w3.org/2000/svg">
<path fill-rule="evenodd" clip-rule="evenodd" d="M15.5305 9.21888C15.6003 9.28854 15.6557 9.37131 15.6936 9.46243C15.7314 9.55354 15.7508 9.65122 15.7508 9.74988C15.7508 9.84853 15.7314 9.94621 15.6936 10.0373C15.6557 10.1284 15.6003 10.2112 15.5305 10.2809L11.0305 14.7809C10.9608 14.8507 10.8781 14.9061 10.7869 14.9439C10.6958 14.9818 10.5981 15.0012 10.4995 15.0012C10.4008 15.0012 10.3032 14.9818 10.212 14.9439C10.1209 14.9061 10.0382 14.8507 9.96848 14.7809L7.71848 12.5309C7.64875 12.4611 7.59344 12.3784 7.5557 12.2873C7.51796 12.1961 7.49854 12.0985 7.49854 11.9999C7.49854 11.9013 7.51796 11.8036 7.5557 11.7125C7.59344 11.6214 7.64875 11.5386 7.71848 11.4689C7.78821 11.3991 7.871 11.3438 7.96211 11.3061C8.05322 11.2684 8.15087 11.2489 8.24948 11.2489C8.3481 11.2489 8.44575 11.2684 8.53686 11.3061C8.62797 11.3438 8.71075 11.3991 8.78048 11.4689L10.4995 13.1894L14.4685 9.21888C14.5382 9.14903 14.6209 9.09362 14.712 9.05581C14.8032 9.018 14.9008 8.99854 14.9995 8.99854C15.0981 8.99854 15.1958 9.018 15.2869 9.05581C15.378 9.09362 15.4608 9.14903 15.5305 9.21888Z" fill="url(#paint0_linear_1330_86417)"/>
<path d="M6.609 5.013C8.10822 3.7202 10.0204 3.00621 12 3C16.035 3 19.3845 6 19.749 9.8685C22.137 10.206 24 12.2055 24 14.6595C24 17.3535 21.753 19.5 19.0305 19.5H5.6715C2.562 19.5 0 17.049 0 13.977C0 11.3325 1.899 9.1425 4.413 8.5875C4.6275 7.293 5.46 6.003 6.609 5.013ZM7.5885 6.1485C6.453 7.128 5.859 8.3085 5.859 9.2325V9.9045L5.1915 9.978C3.096 10.2075 1.5 11.928 1.5 13.977C1.5 16.1775 3.345 18 5.6715 18H19.0305C20.97 18 22.5 16.482 22.5 14.6595C22.5 12.8355 20.97 11.3175 19.0305 11.3175H18.2805V10.5675C18.282 7.2375 15.492 4.5 12 4.5C10.3798 4.50647 8.81526 5.09015 7.5885 6.1485Z" fill="url(#paint1_linear_1330_86417)"/>
<defs>
<linearGradient id="paint0_linear_1330_86417" x1="0.268197" y1="11.2499" x2="23.7321" y2="11.2499" gradientUnits="userSpaceOnUse">
<stop stop-color="#FFA98F"/>
<stop offset="1" stop-color="#FF5F2E"/>
</linearGradient>
<linearGradient id="paint1_linear_1330_86417" x1="0.268197" y1="11.2499" x2="23.7321" y2="11.2499" gradientUnits="userSpaceOnUse">
<stop stop-color="#FFA98F"/>
<stop offset="1" stop-color="#FF5F2E"/>
</linearGradient>
</defs>
</svg>
