<svg width="24" height="24" viewBox="0 0 24 24" fill="none" xmlns="http://www.w3.org/2000/svg">
<g id="icon / outline / code-slash">
<path id="Vector" d="M15.7169 2.47064C15.7458 2.37648 15.756 2.27754 15.7467 2.17947C15.7374 2.0814 15.7089 1.98612 15.6628 1.89906C15.6167 1.81201 15.5539 1.73488 15.478 1.6721C15.4021 1.60931 15.3145 1.5621 15.2204 1.53314C15.1262 1.50418 15.0273 1.49406 14.9292 1.50334C14.8311 1.51262 14.7359 1.54112 14.6488 1.58723C14.5617 1.63333 14.4846 1.69613 14.4218 1.77204C14.3591 1.84795 14.3118 1.93548 14.2829 2.02964L8.28288 21.5296C8.2244 21.7198 8.24385 21.9254 8.33696 22.1012C8.43008 22.277 8.58922 22.4087 8.77938 22.4671C8.96954 22.5256 9.17514 22.5062 9.35095 22.4131C9.52677 22.3199 9.6584 22.1608 9.71688 21.9706L15.7169 2.47064ZM7.28088 6.21914C7.35072 6.28881 7.40614 6.37157 7.44395 6.46269C7.48175 6.55381 7.50122 6.65149 7.50122 6.75014C7.50122 6.84879 7.48175 6.94647 7.44395 7.03759C7.40614 7.12871 7.35072 7.21147 7.28088 7.28114L2.56038 12.0001L7.28088 16.7191C7.42171 16.86 7.50082 17.051 7.50082 17.2501C7.50082 17.4493 7.42171 17.6403 7.28088 17.7811C7.14005 17.922 6.94904 18.0011 6.74988 18.0011C6.55071 18.0011 6.35971 17.922 6.21888 17.7811L0.968876 12.5311C0.899031 12.4615 0.843617 12.3787 0.805807 12.2876C0.767997 12.1965 0.748535 12.0988 0.748535 12.0001C0.748535 11.9015 0.767997 11.8038 0.805807 11.7127C0.843617 11.6216 0.899031 11.5388 0.968876 11.4691L6.21888 6.21914C6.28854 6.14929 6.37131 6.09388 6.46243 6.05607C6.55354 6.01826 6.65123 5.9988 6.74988 5.9988C6.84853 5.9988 6.94621 6.01826 7.03733 6.05607C7.12844 6.09388 7.21121 6.14929 7.28088 6.21914ZM16.7189 6.21914C16.649 6.28881 16.5936 6.37157 16.5558 6.46269C16.518 6.55381 16.4985 6.65149 16.4985 6.75014C16.4985 6.84879 16.518 6.94647 16.5558 7.03759C16.5936 7.12871 16.649 7.21147 16.7189 7.28114L21.4394 12.0001L16.7189 16.7191C16.6491 16.7889 16.5938 16.8717 16.5561 16.9628C16.5184 17.0539 16.4989 17.1515 16.4989 17.2501C16.4989 17.3488 16.5184 17.4464 16.5561 17.5375C16.5938 17.6286 16.6491 17.7114 16.7189 17.7811C16.7886 17.8509 16.8714 17.9062 16.9625 17.9439C17.0536 17.9817 17.1513 18.0011 17.2499 18.0011C17.3485 18.0011 17.4461 17.9817 17.5373 17.9439C17.6284 17.9062 17.7111 17.8509 17.7809 17.7811L23.0309 12.5311C23.1007 12.4615 23.1561 12.3787 23.1939 12.2876C23.2318 12.1965 23.2512 12.0988 23.2512 12.0001C23.2512 11.9015 23.2318 11.8038 23.1939 11.7127C23.1561 11.6216 23.1007 11.5388 23.0309 11.4691L17.7809 6.21914C17.7112 6.14929 17.6284 6.09388 17.5373 6.05607C17.4462 6.01826 17.3485 5.9988 17.2499 5.9988C17.1512 5.9988 17.0535 6.01826 16.9624 6.05607C16.8713 6.09388 16.7885 6.14929 16.7189 6.21914Z" fill="url(#paint0_linear_778_77335)"/>
</g>
<defs>
<linearGradient id="paint0_linear_778_77335" x1="1" y1="12" x2="23" y2="12" gradientUnits="userSpaceOnUse">
<stop stop-color="#FFA98F"/>
<stop offset="1" stop-color="#FF5F2E"/>
</linearGradient>
</defs>
</svg>
