<svg width="24" height="24" viewBox="0 0 24 24" fill="none" xmlns="http://www.w3.org/2000/svg">
<g id="icon / outline / code-square" clip-path="url(#clip0_778_80743)">
<g id="Vector">
<path d="M21 1.5C21.3978 1.5 21.7794 1.65804 22.0607 1.93934C22.342 2.22064 22.5 2.60218 22.5 3V21C22.5 21.3978 22.342 21.7794 22.0607 22.0607C21.7794 22.342 21.3978 22.5 21 22.5H3C2.60218 22.5 2.22064 22.342 1.93934 22.0607C1.65804 21.7794 1.5 21.3978 1.5 21V3C1.5 2.60218 1.65804 2.22064 1.93934 1.93934C2.22064 1.65804 2.60218 1.5 3 1.5H21ZM3 0C2.20435 0 1.44129 0.316071 0.87868 0.87868C0.316071 1.44129 0 2.20435 0 3V21C0 21.7956 0.316071 22.5587 0.87868 23.1213C1.44129 23.6839 2.20435 24 3 24H21C21.7956 24 22.5587 23.6839 23.1213 23.1213C23.6839 22.5587 24 21.7956 24 21V3C24 2.20435 23.6839 1.44129 23.1213 0.87868C22.5587 0.316071 21.7956 0 21 0H3Z" fill="url(#paint0_linear_778_80743)"/>
<path d="M10.2809 6.96888C10.3507 7.03854 10.4061 7.12131 10.4439 7.21243C10.4818 7.30354 10.5012 7.40122 10.5012 7.49988C10.5012 7.59853 10.4818 7.69621 10.4439 7.78733C10.4061 7.87844 10.3507 7.96121 10.2809 8.03088L6.31038 11.9999L10.2809 15.9689C10.4217 16.1097 10.5008 16.3007 10.5008 16.4999C10.5008 16.699 10.4217 16.89 10.2809 17.0309C10.14 17.1717 9.94904 17.2508 9.74988 17.2508C9.55071 17.2508 9.3597 17.1717 9.21888 17.0309L4.71888 12.5309C4.64903 12.4612 4.59362 12.3784 4.55581 12.2873C4.518 12.1962 4.49854 12.0985 4.49854 11.9999C4.49854 11.9012 4.518 11.8035 4.55581 11.7124C4.59362 11.6213 4.64903 11.5385 4.71888 11.4689L9.21888 6.96888C9.28854 6.89903 9.37131 6.84362 9.46243 6.80581C9.55354 6.768 9.65122 6.74854 9.74988 6.74854C9.84853 6.74854 9.94621 6.768 10.0373 6.80581C10.1284 6.84362 10.2112 6.89903 10.2809 6.96888ZM13.7189 6.96888C13.649 7.03854 13.5936 7.12131 13.5558 7.21243C13.518 7.30354 13.4985 7.40122 13.4985 7.49988C13.4985 7.59853 13.518 7.69621 13.5558 7.78733C13.5936 7.87844 13.649 7.96121 13.7189 8.03088L17.6894 11.9999L13.7189 15.9689C13.578 16.1097 13.4989 16.3007 13.4989 16.4999C13.4989 16.699 13.578 16.89 13.7189 17.0309C13.8597 17.1717 14.0507 17.2508 14.2499 17.2508C14.449 17.2508 14.64 17.1717 14.7809 17.0309L19.2809 12.5309C19.3507 12.4612 19.4061 12.3784 19.4439 12.2873C19.4818 12.1962 19.5012 12.0985 19.5012 11.9999C19.5012 11.9012 19.4818 11.8035 19.4439 11.7124C19.4061 11.6213 19.3507 11.5385 19.2809 11.4689L14.7809 6.96888C14.7112 6.89903 14.6284 6.84362 14.5373 6.80581C14.4462 6.768 14.3485 6.74854 14.2499 6.74854C14.1512 6.74854 14.0535 6.768 13.9624 6.80581C13.8713 6.84362 13.7885 6.89903 13.7189 6.96888Z" fill="url(#paint1_linear_778_80743)"/>
</g>
</g>
<defs>
<linearGradient id="paint0_linear_778_80743" x1="0.268197" y1="11.9998" x2="23.7321" y2="11.9998" gradientUnits="userSpaceOnUse">
<stop stop-color="#FFA98F"/>
<stop offset="1" stop-color="#FF5F2E"/>
</linearGradient>
<linearGradient id="paint1_linear_778_80743" x1="0.268197" y1="11.9998" x2="23.7321" y2="11.9998" gradientUnits="userSpaceOnUse">
<stop stop-color="#FFA98F"/>
<stop offset="1" stop-color="#FF5F2E"/>
</linearGradient>
<clipPath id="clip0_778_80743">
<rect width="24" height="24" fill="white"/>
</clipPath>
</defs>
</svg>
