<svg width="24" height="27" viewBox="0 0 24 27" fill="none" xmlns="http://www.w3.org/2000/svg">
<path d="M11.25 11.25C11.25 11.0511 11.171 10.8603 11.0303 10.7197C10.8897 10.579 10.6989 10.5 10.5 10.5C10.3011 10.5 10.1103 10.579 9.96967 10.7197C9.82902 10.8603 9.75 11.0511 9.75 11.25V12.201L8.9265 11.7255C8.84117 11.6755 8.74679 11.6428 8.64879 11.6294C8.5508 11.616 8.45111 11.6221 8.35549 11.6474C8.25987 11.6727 8.17019 11.7167 8.09162 11.7767C8.01304 11.8368 7.94713 11.9118 7.89768 11.9975C7.84822 12.0832 7.8162 12.1778 7.80345 12.2758C7.7907 12.3739 7.79748 12.4736 7.82339 12.569C7.84931 12.6645 7.89385 12.7539 7.95445 12.832C8.01505 12.9102 8.09052 12.9756 8.1765 13.0245L9 13.5L8.1765 13.9755C8.09052 14.0244 8.01505 14.0898 7.95445 14.168C7.89385 14.2461 7.84931 14.3355 7.82339 14.431C7.79748 14.5264 7.7907 14.6261 7.80345 14.7242C7.8162 14.8222 7.84822 14.9168 7.89768 15.0025C7.94713 15.0882 8.01304 15.1632 8.09162 15.2233C8.17019 15.2833 8.25987 15.3273 8.35549 15.3526C8.45111 15.3779 8.5508 15.384 8.64879 15.3706C8.74679 15.3572 8.84117 15.3245 8.9265 15.2745L9.75 14.799V15.75C9.75 15.9489 9.82902 16.1397 9.96967 16.2803C10.1103 16.421 10.3011 16.5 10.5 16.5C10.6989 16.5 10.8897 16.421 11.0303 16.2803C11.171 16.1397 11.25 15.9489 11.25 15.75V14.799L12.0735 15.2745C12.1588 15.3245 12.2532 15.3572 12.3512 15.3706C12.4492 15.384 12.5489 15.3779 12.6445 15.3526C12.7401 15.3273 12.8298 15.2833 12.9084 15.2233C12.987 15.1632 13.0529 15.0882 13.1023 15.0025C13.1518 14.9168 13.1838 14.8222 13.1966 14.7242C13.2093 14.6261 13.2025 14.5264 13.1766 14.431C13.1507 14.3355 13.1062 14.2461 13.0456 14.168C12.9849 14.0898 12.9095 14.0244 12.8235 13.9755L12 13.5L12.8235 13.0245C12.9095 12.9756 12.9849 12.9102 13.0456 12.832C13.1062 12.7539 13.1507 12.6645 13.1766 12.569C13.2025 12.4736 13.2093 12.3739 13.1966 12.2758C13.1838 12.1778 13.1518 12.0832 13.1023 11.9975C13.0529 11.9118 12.987 11.8368 12.9084 11.7767C12.8298 11.7167 12.7401 11.6727 12.6445 11.6474C12.5489 11.6221 12.4492 11.616 12.3512 11.6294C12.2532 11.6428 12.1588 11.6755 12.0735 11.7255L11.25 12.201V11.25ZM8.25 18C8.05109 18 7.86032 18.079 7.71967 18.2197C7.57902 18.3603 7.5 18.5511 7.5 18.75C7.5 18.9489 7.57902 19.1397 7.71967 19.2803C7.86032 19.421 8.05109 19.5 8.25 19.5H15.75C15.9489 19.5 16.1397 19.421 16.2803 19.2803C16.421 19.1397 16.5 18.9489 16.5 18.75C16.5 18.5511 16.421 18.3603 16.2803 18.2197C16.1397 18.079 15.9489 18 15.75 18H8.25ZM8.25 21C8.05109 21 7.86032 21.079 7.71967 21.2197C7.57902 21.3603 7.5 21.5511 7.5 21.75C7.5 21.9489 7.57902 22.1397 7.71967 22.2803C7.86032 22.421 8.05109 22.5 8.25 22.5H15.75C15.9489 22.5 16.1397 22.421 16.2803 22.2803C16.421 22.1397 16.5 21.9489 16.5 21.75C16.5 21.5511 16.421 21.3603 16.2803 21.2197C16.1397 21.079 15.9489 21 15.75 21H8.25Z" fill="url(#paint0_linear_1196_74239)"/>
<path d="M21 24V9.75L14.25 3H6C5.20435 3 4.44129 3.31607 3.87868 3.87868C3.31607 4.44129 3 5.20435 3 6V24C3 24.7956 3.31607 25.5587 3.87868 26.1213C4.44129 26.6839 5.20435 27 6 27H18C18.7956 27 19.5587 26.6839 20.1213 26.1213C20.6839 25.5587 21 24.7956 21 24ZM14.25 7.5C14.25 8.09674 14.4871 8.66903 14.909 9.09099C15.331 9.51295 15.9033 9.75 16.5 9.75H19.5V24C19.5 24.3978 19.342 24.7794 19.0607 25.0607C18.7794 25.342 18.3978 25.5 18 25.5H6C5.60218 25.5 5.22064 25.342 4.93934 25.0607C4.65804 24.7794 4.5 24.3978 4.5 24V6C4.5 5.60218 4.65804 5.22064 4.93934 4.93934C5.22064 4.65804 5.60218 4.5 6 4.5H14.25V7.5Z" fill="url(#paint1_linear_1196_74239)"/>
<defs>
<linearGradient id="paint0_linear_1196_74239" x1="3.20115" y1="14.9998" x2="20.799" y2="14.9998" gradientUnits="userSpaceOnUse">
<stop stop-color="#FFA98F"/>
<stop offset="1" stop-color="#FF5F2E"/>
</linearGradient>
<linearGradient id="paint1_linear_1196_74239" x1="3.20115" y1="14.9998" x2="20.799" y2="14.9998" gradientUnits="userSpaceOnUse">
<stop stop-color="#FFA98F"/>
<stop offset="1" stop-color="#FF5F2E"/>
</linearGradient>
</defs>
</svg>
