<svg width="24" height="24" viewBox="0 0 24 24" fill="none" xmlns="http://www.w3.org/2000/svg">
<path d="M7.5 12C8.29565 12 9.05871 11.6839 9.62132 11.1213C10.1839 10.5587 10.5 9.79565 10.5 9C10.5 8.20435 10.1839 7.44129 9.62132 6.87868C9.05871 6.31607 8.29565 6 7.5 6C6.70435 6 5.94129 6.31607 5.37868 6.87868C4.81607 7.44129 4.5 8.20435 4.5 9C4.5 9.79565 4.81607 10.5587 5.37868 11.1213C5.94129 11.6839 6.70435 12 7.5 12ZM13.5 8.25C13.5 8.05109 13.579 7.86032 13.7197 7.71967C13.8603 7.57902 14.0511 7.5 14.25 7.5H20.25C20.4489 7.5 20.6397 7.57902 20.7803 7.71967C20.921 7.86032 21 8.05109 21 8.25C21 8.44891 20.921 8.63968 20.7803 8.78033C20.6397 8.92098 20.4489 9 20.25 9H14.25C14.0511 9 13.8603 8.92098 13.7197 8.78033C13.579 8.63968 13.5 8.44891 13.5 8.25ZM13.5 12C13.5 11.8011 13.579 11.6103 13.7197 11.4697C13.8603 11.329 14.0511 11.25 14.25 11.25H20.25C20.4489 11.25 20.6397 11.329 20.7803 11.4697C20.921 11.6103 21 11.8011 21 12C21 12.1989 20.921 12.3897 20.7803 12.5303C20.6397 12.671 20.4489 12.75 20.25 12.75H14.25C14.0511 12.75 13.8603 12.671 13.7197 12.5303C13.579 12.3897 13.5 12.1989 13.5 12ZM15 15.75C15 15.5511 15.079 15.3603 15.2197 15.2197C15.3603 15.079 15.5511 15 15.75 15H20.25C20.4489 15 20.6397 15.079 20.7803 15.2197C20.921 15.3603 21 15.5511 21 15.75C21 15.9489 20.921 16.1397 20.7803 16.2803C20.6397 16.421 20.4489 16.5 20.25 16.5H15.75C15.5511 16.5 15.3603 16.421 15.2197 16.2803C15.079 16.1397 15 15.9489 15 15.75Z" fill="url(#paint0_linear_778_74755)"/>
<path d="M3 3C2.20435 3 1.44129 3.31607 0.87868 3.87868C0.316071 4.44129 0 5.20435 0 6V18C0 18.7956 0.316071 19.5587 0.87868 20.1213C1.44129 20.6839 2.20435 21 3 21H21C21.7956 21 22.5587 20.6839 23.1213 20.1213C23.6839 19.5587 24 18.7956 24 18V6C24 5.20435 23.6839 4.44129 23.1213 3.87868C22.5587 3.31607 21.7956 3 21 3H3ZM1.5 6C1.5 5.60218 1.65804 5.22064 1.93934 4.93934C2.22064 4.65804 2.60218 4.5 3 4.5H21C21.3978 4.5 21.7794 4.65804 22.0607 4.93934C22.342 5.22064 22.5 5.60218 22.5 6V18C22.5 18.3978 22.342 18.7794 22.0607 19.0607C21.7794 19.342 21.3978 19.5 21 19.5H13.44C13.48 19.255 13.5 19.005 13.5 18.75C13.5 15.8505 10.815 13.5 7.5 13.5C4.371 13.5 1.8 15.597 1.524 18.2715C1.50778 18.1819 1.49974 18.091 1.5 18V6Z" fill="url(#paint1_linear_778_74755)"/>
<defs>
<linearGradient id="paint0_linear_778_74755" x1="0.268197" y1="11.9999" x2="23.7321" y2="11.9999" gradientUnits="userSpaceOnUse">
<stop stop-color="#FFA98F"/>
<stop offset="1" stop-color="#FF5F2E"/>
</linearGradient>
<linearGradient id="paint1_linear_778_74755" x1="0.268197" y1="11.9999" x2="23.7321" y2="11.9999" gradientUnits="userSpaceOnUse">
<stop stop-color="#FFA98F"/>
<stop offset="1" stop-color="#FF5F2E"/>
</linearGradient>
</defs>
</svg>
