<svg width="24" height="27" viewBox="0 0 24 27" fill="none" xmlns="http://www.w3.org/2000/svg">
<path d="M18.75 27C20.1424 27 21.4777 26.4469 22.4623 25.4623C23.4469 24.4777 24 23.1424 24 21.75C24 20.3576 23.4469 19.0223 22.4623 18.0377C21.4777 17.0531 20.1424 16.5 18.75 16.5C17.3576 16.5 16.0223 17.0531 15.0377 18.0377C14.0531 19.0223 13.5 20.3576 13.5 21.75C13.5 23.1424 14.0531 24.4777 15.0377 25.4623C16.0223 26.4469 17.3576 27 18.75 27ZM21.2685 20.2605L19.266 23.5995C19.178 23.7462 19.0577 23.8709 18.9143 23.9641C18.7708 24.0573 18.608 24.1166 18.4382 24.1374C18.2684 24.1582 18.0961 24.1401 17.9344 24.0843C17.7727 24.0285 17.6258 23.9366 17.505 23.8155L16.344 22.656C16.2032 22.5152 16.1241 22.3242 16.1241 22.125C16.1241 21.9258 16.2032 21.7348 16.344 21.594C16.4848 21.4532 16.6758 21.3741 16.875 21.3741C17.0742 21.3741 17.2652 21.4532 17.406 21.594L18.2265 22.416L19.9815 19.4895C20.0321 19.405 20.0989 19.3313 20.178 19.2726C20.2571 19.2139 20.347 19.1713 20.4426 19.1474C20.5381 19.1234 20.6375 19.1185 20.7349 19.133C20.8323 19.1474 20.926 19.1809 21.0105 19.2315C21.095 19.2821 21.1687 19.3489 21.2274 19.428C21.2861 19.5071 21.3287 19.597 21.3526 19.6926C21.3766 19.7881 21.3815 19.8875 21.367 19.9849C21.3526 20.0823 21.3191 20.176 21.2685 20.2605ZM16.5 10.5C16.5 11.6935 16.0259 12.8381 15.182 13.682C14.3381 14.5259 13.1935 15 12 15C10.8065 15 9.66193 14.5259 8.81802 13.682C7.97411 12.8381 7.5 11.6935 7.5 10.5C7.5 9.30653 7.97411 8.16193 8.81802 7.31802C9.66193 6.47411 10.8065 6 12 6C13.1935 6 14.3381 6.47411 15.182 7.31802C16.0259 8.16193 16.5 9.30653 16.5 10.5ZM12 13.5C12.7956 13.5 13.5587 13.1839 14.1213 12.6213C14.6839 12.0587 15 11.2956 15 10.5C15 9.70435 14.6839 8.94129 14.1213 8.37868C13.5587 7.81607 12.7956 7.5 12 7.5C11.2044 7.5 10.4413 7.81607 9.87868 8.37868C9.31607 8.94129 9 9.70435 9 10.5C9 11.2956 9.31607 12.0587 9.87868 12.6213C10.4413 13.1839 11.2044 13.5 12 13.5Z" fill="url(#paint0_linear_1196_73551)"/>
<path d="M12.384 24C12.2122 23.5128 12.097 23.0075 12.0405 22.494H4.5C4.5015 22.125 4.731 21.015 5.748 19.998C6.726 19.02 8.5665 18 12 18C12.39 18 12.76 18.0125 13.11 18.0375C13.449 17.526 13.854 17.0625 14.316 16.6605C13.616 16.5555 12.844 16.502 12 16.5C4.5 16.5 3 21 3 22.5C3 24 4.5 24 4.5 24H12.384Z" fill="url(#paint1_linear_1196_73551)"/>
<defs>
<linearGradient id="paint0_linear_1196_73551" x1="3.23467" y1="16.4999" x2="23.7656" y2="16.4999" gradientUnits="userSpaceOnUse">
<stop stop-color="#FFA98F"/>
<stop offset="1" stop-color="#FF5F2E"/>
</linearGradient>
<linearGradient id="paint1_linear_1196_73551" x1="3.23467" y1="16.4999" x2="23.7656" y2="16.4999" gradientUnits="userSpaceOnUse">
<stop stop-color="#FFA98F"/>
<stop offset="1" stop-color="#FF5F2E"/>
</linearGradient>
</defs>
</svg>
