<svg width="24" height="24" viewBox="0 0 24 24" fill="none" xmlns="http://www.w3.org/2000/svg">
<g id="icon / outline / rocket-takeoff" clip-path="url(#clip0_778_72240)">
<g id="Vector">
<path d="M14.6287 9.28965C15.5272 10.1896 17.2237 9.94515 18.4207 8.74665C19.6177 7.54815 19.8607 5.84865 18.9637 4.95015C18.0652 4.05015 16.3687 4.29315 15.1717 5.49165C13.9747 6.69165 13.7317 8.39115 14.6287 9.28965Z" fill="url(#paint0_linear_778_72240)"/>
<path d="M23.7168 4.96792C23.1723 7.26892 21.7158 10.4069 18.2568 14.2949L17.8968 17.9069C17.8009 18.7723 17.4137 19.5795 16.7988 20.1959L13.2258 23.7749C13.1124 23.8896 12.9655 23.9655 12.8064 23.9918C12.6472 24.018 12.4838 23.9933 12.3395 23.921C12.1952 23.8488 12.0775 23.7328 12.0031 23.5897C11.9287 23.4465 11.9015 23.2835 11.9253 23.1239L12.3303 20.2754C12.3903 19.8554 12.3108 19.3859 12.1338 18.8414C12.0222 18.5082 11.8976 18.1794 11.7603 17.8559L11.6373 17.5529C10.4148 17.2574 9.27031 16.5599 8.35081 15.6374C7.42981 14.7149 6.73231 13.5689 6.43831 12.3449L6.13381 12.2204C5.81076 12.085 5.48306 11.9609 5.15131 11.8484C4.60681 11.6699 4.13881 11.5904 3.71881 11.6504L0.874812 12.0554C0.715373 12.0789 0.552603 12.0513 0.409721 11.9768C0.266839 11.9023 0.151145 11.7845 0.0791413 11.6404C0.00713777 11.4962 -0.0174968 11.333 0.00875167 11.174C0.0350002 11.0149 0.110791 10.8683 0.225312 10.7549L3.79831 7.17592C4.41331 6.56092 5.21881 6.17092 6.08431 6.07492H6.09331L9.69331 5.71792C13.5078 2.32492 16.6308 0.872917 18.9348 0.311917C20.2698 -0.0135832 21.3198 -0.0360832 22.0548 0.0299168C22.4208 0.0644168 22.7073 0.119917 22.9098 0.169417C23.0098 0.195417 23.0898 0.217917 23.1498 0.236917C23.4258 0.326917 23.5683 0.431917 23.6763 0.679417L23.7198 0.788917C23.8362 1.14011 23.9151 1.50263 23.9553 1.87042C24.0378 2.59792 24.0318 3.63742 23.7168 4.96792ZM16.4748 16.1804L16.5348 16.1204L16.3743 17.7419C16.3151 18.2598 16.0825 18.7425 15.7143 19.1114L13.7673 21.0614L13.8483 20.4914C13.9563 19.7324 13.7973 19.0019 13.5903 18.3644C13.5143 18.1373 13.4323 17.9122 13.3443 17.6894C14.4513 17.5919 15.5373 17.1194 16.4748 16.1804ZM7.80781 7.49992C6.87031 8.43892 6.39781 9.52642 6.30181 10.6349C6.07903 10.5469 5.85395 10.4649 5.62681 10.3889C4.99081 10.1819 4.26181 10.0229 3.50281 10.1309L2.93281 10.2119L4.88281 8.26192C5.25031 7.89292 5.73181 7.66042 6.24781 7.60192L7.86781 7.44142L7.80781 7.49992ZM21.9168 1.55842C21.3468 1.50742 20.4663 1.51792 19.2978 1.80292C16.9608 2.37292 13.4223 4.04692 8.89231 8.58442C7.96231 9.51442 7.69381 10.5944 7.86181 11.6609C8.02231 12.6749 8.58631 13.7039 9.43381 14.5529C10.2798 15.4004 11.3088 15.9644 12.3198 16.1264C13.3848 16.2944 14.4633 16.0259 15.3918 15.0944C20.0103 10.4699 21.6798 6.92842 22.2258 4.61392C22.5003 3.45742 22.4958 2.59642 22.4328 2.04442C22.4171 1.90192 22.3946 1.76026 22.3653 1.61992C22.2164 1.59186 22.0663 1.57133 21.9153 1.55842H21.9168Z" fill="url(#paint1_linear_778_72240)"/>
<path d="M10.5129 18.2087C9.51513 17.6709 8.6031 16.9874 7.80693 16.1807C6.9535 15.3347 6.23919 14.3592 5.69043 13.2902C4.03743 14.7782 2.74294 20.8712 2.93194 21.0602C3.11944 21.2492 8.83593 19.7162 10.5129 18.2072V18.2087Z" fill="url(#paint2_linear_778_72240)"/>
</g>
</g>
<defs>
<linearGradient id="paint0_linear_778_72240" x1="0.26675" y1="12.0008" x2="23.7322" y2="12.0008" gradientUnits="userSpaceOnUse">
<stop stop-color="#CBD5E1"/>
<stop offset="1" stop-color="#64748B"/>
</linearGradient>
<linearGradient id="paint1_linear_778_72240" x1="0.26675" y1="12.0008" x2="23.7322" y2="12.0008" gradientUnits="userSpaceOnUse">
<stop stop-color="#CBD5E1"/>
<stop offset="1" stop-color="#64748B"/>
</linearGradient>
<linearGradient id="paint2_linear_778_72240" x1="0.26675" y1="12.0008" x2="23.7322" y2="12.0008" gradientUnits="userSpaceOnUse">
<stop stop-color="#CBD5E1"/>
<stop offset="1" stop-color="#64748B"/>
</linearGradient>
<clipPath id="clip0_778_72240">
<rect width="24" height="24" fill="white"/>
</clipPath>
</defs>
</svg>
