<svg width="24" height="24" viewBox="0 0 24 24" fill="none" xmlns="http://www.w3.org/2000/svg">
<g id="icon / outline / shield-check">
<g id="Vector">
<path d="M8.00701 2.385C6.57832 2.77848 5.1594 3.2066 3.75151 3.669C3.62285 3.71049 3.50848 3.78736 3.42147 3.89082C3.33446 3.99427 3.27833 4.12014 3.25951 4.254C2.42851 10.4895 4.34851 15.039 6.63901 18.036C7.60835 19.318 8.76475 20.4471 10.0695 21.3855C10.5885 21.7515 11.0475 22.0155 11.409 22.185C11.589 22.27 11.7355 22.329 11.8485 22.362C11.8983 22.3771 11.9489 22.3896 12 22.3995C12.0506 22.3896 12.1007 22.3771 12.15 22.362C12.264 22.328 12.411 22.269 12.591 22.185C12.951 22.0155 13.4115 21.75 13.9305 21.3855C15.2353 20.4471 16.3917 19.318 17.361 18.036C19.6515 15.0405 21.5715 10.4895 20.7405 4.254C20.7217 4.12014 20.6656 3.99427 20.5786 3.89082C20.4915 3.78736 20.3772 3.71049 20.2485 3.669C19.272 3.3495 17.6235 2.829 15.993 2.3865C14.328 1.935 12.7965 1.6005 12 1.6005C11.205 1.6005 9.67201 1.9335 8.00701 2.385ZM7.60801 0.84C9.23551 0.3975 10.965 0 12 0C13.035 0 14.7645 0.3975 16.392 0.84C18.057 1.29 19.7355 1.8225 20.7225 2.145C21.1352 2.28128 21.501 2.5312 21.778 2.86605C22.055 3.20091 22.232 3.60711 22.2885 4.038C23.1825 10.7535 21.108 15.7305 18.591 19.023C17.5232 20.4311 16.2506 21.6713 14.8155 22.7025C14.3198 23.0602 13.7938 23.3739 13.2435 23.64C12.8235 23.838 12.372 24 12 24C11.628 24 11.178 23.838 10.7565 23.64C10.2062 23.3739 9.68022 23.0602 9.18451 22.7025C7.74938 21.6713 6.47677 20.4311 5.40901 19.023C2.89201 15.7305 0.817508 10.7535 1.71151 4.038C1.76804 3.60711 1.94497 3.20091 2.22198 2.86605C2.49899 2.5312 2.86485 2.28128 3.27751 2.145C4.71039 1.67551 6.1543 1.24039 7.60801 0.84Z" fill="url(#paint0_linear_778_76984)"/>
<path d="M16.2805 7.71888C16.3503 7.78854 16.4057 7.87131 16.4436 7.96243C16.4814 8.05354 16.5008 8.15122 16.5008 8.24988C16.5008 8.34853 16.4814 8.44621 16.4436 8.53733C16.4057 8.62844 16.3503 8.71121 16.2805 8.78088L11.7805 13.2809C11.7108 13.3507 11.6281 13.4061 11.5369 13.4439C11.4458 13.4818 11.3481 13.5012 11.2495 13.5012C11.1508 13.5012 11.0532 13.4818 10.962 13.4439C10.8709 13.4061 10.7882 13.3507 10.7185 13.2809L8.46848 11.0309C8.39875 10.9611 8.34344 10.8784 8.3057 10.7873C8.26796 10.6961 8.24854 10.5985 8.24854 10.4999C8.24854 10.4013 8.26796 10.3036 8.3057 10.2125C8.34344 10.1214 8.39875 10.0386 8.46848 9.96888C8.53821 9.89914 8.621 9.84383 8.71211 9.80609C8.80322 9.76835 8.90087 9.74893 8.99948 9.74893C9.0981 9.74893 9.19575 9.76835 9.28686 9.80609C9.37797 9.84383 9.46075 9.89914 9.53048 9.96888L11.2495 11.6894L15.2185 7.71888C15.2882 7.64903 15.3709 7.59362 15.462 7.55581C15.5532 7.518 15.6508 7.49854 15.7495 7.49854C15.8481 7.49854 15.9458 7.518 16.0369 7.55581C16.1281 7.59362 16.2108 7.64903 16.2805 7.71888Z" fill="url(#paint1_linear_778_76984)"/>
</g>
</g>
<defs>
<linearGradient id="paint0_linear_778_76984" x1="1.73467" y1="11.9998" x2="22.2656" y2="11.9998" gradientUnits="userSpaceOnUse">
<stop stop-color="#CBD5E1"/>
<stop offset="1" stop-color="#64748B"/>
</linearGradient>
<linearGradient id="paint1_linear_778_76984" x1="1.73467" y1="11.9998" x2="22.2656" y2="11.9998" gradientUnits="userSpaceOnUse">
<stop stop-color="#CBD5E1"/>
<stop offset="1" stop-color="#64748B"/>
</linearGradient>
</defs>
</svg>
