<?xml version="1.0" encoding="UTF-8"?>
<svg width="1518px" height="435px" viewBox="0 0 1518 435" version="1.1" xmlns="http://www.w3.org/2000/svg" xmlns:xlink="http://www.w3.org/1999/xlink">
    <title>Home-Grid</title>
    <g id="Page-1" stroke="none" stroke-width="1" fill="none" fill-rule="evenodd" opacity="0.0937732515">
        <g id="Home" transform="translate(39.000000, -418.000000)" stroke="#000000" stroke-width="1.5">
            <g id="Home-Grid" transform="translate(720.000000, 635.500000) scale(1, -1) translate(-720.000000, -635.500000) translate(-39.000000, 418.000000)">
                <g id="Group-13">
                    <line x1="390.5" y1="310" x2="390.5" y2="171.5" id="Path-5-Copy-2" transform="translate(390.500000, 240.500000) scale(1, -1) translate(-390.500000, -240.500000) "></line>
                    <line x1="240.5" y1="310" x2="240.5" y2="152.5" id="Path-5-Copy-11" transform="translate(240.500000, 231.000000) scale(1, -1) translate(-240.500000, -231.000000) "></line>
                    <line x1="210.5" y1="321.5" x2="210.5" y2="54.5" id="Path-5-Copy-12" transform="translate(210.500000, 188.000000) scale(1, -1) translate(-210.500000, -188.000000) "></line>
                    <line x1="300.5" y1="322" x2="300.5" y2="171.5" id="Path-5-Copy-9" transform="translate(300.500000, 246.500000) scale(1, -1) translate(-300.500000, -246.500000) "></line>
                    <line x1="150.5" y1="321.5" x2="150.5" y2="51.5" id="Path-5-Copy-14" transform="translate(150.500000, 186.500000) scale(1, -1) translate(-150.500000, -186.500000) "></line>
                    <line x1="30.5" y1="171.5" x2="451.5" y2="171.245667" id="Path-5-Copy" transform="translate(241.000000, 171.372833) scale(1, -1) translate(-241.000000, -171.372833) "></line>
                    <line x1="19.5" y1="140.872833" x2="413.5" y2="140.872833" id="Path-5-Copy-20" transform="translate(216.500000, 141.186417) scale(1, -1) translate(-216.500000, -141.186417) "></line>
                    <line x1="30.5" y1="80.3135834" x2="244.745667" y2="80.6864166" id="Path-5-Copy-22" transform="translate(137.500000, 80.186417) scale(1, -1) translate(-137.500000, -80.186417) "></line>
                    <line x1="0.5" y1="109.872833" x2="150" y2="109.872833" id="Path-5-Copy-21" transform="translate(75.500000, 110.186417) scale(1, -1) translate(-75.500000, -110.186417) "></line>
                    <line x1="50.5" y1="49.3475417" x2="131.5" y2="48.9067917" id="Path-5-Copy-23" transform="translate(91.000000, 49.220375) scale(1, -1) translate(-91.000000, -49.220375) "></line>
                    <line x1="31.6457859" y1="201.5" x2="1336.5" y2="201.245667" id="Path-5-Copy-3" transform="translate(684.000000, 201.372833) scale(1, -1) translate(-684.000000, -201.372833) "></line>
                    <line x1="31.6447964" y1="231.5" x2="1482.3552" y2="231.245667" id="Path-5-Copy-4" transform="translate(757.000000, 231.372833) scale(1, -1) translate(-757.000000, -231.372833) "></line>
                    <line x1="31.6457859" y1="261.5" x2="1473.35421" y2="261.245667" id="Path-5-Copy-5" transform="translate(752.500000, 261.372833) scale(1, -1) translate(-752.500000, -261.372833) "></line>
                    <line x1="46.5" y1="291.245667" x2="829.5" y2="291.245667" id="Path-5-Copy-6" transform="translate(438.000000, 291.372833) scale(1, -1) translate(-438.000000, -291.372833) "></line>
                    <line x1="270.5" y1="322" x2="270.5" y2="193.5" id="Path-5-Copy-10" transform="translate(270.500000, 257.500000) scale(1, -1) translate(-270.500000, -257.500000) "></line>
                    <line x1="421.5" y1="312" x2="421" y2="142" id="Path-5-Copy-18" transform="translate(421.500000, 227.000000) scale(1, -1) translate(-421.500000, -227.000000) "></line>
                    <line x1="451" y1="322" x2="451" y2="212.5" id="Path-5-Copy-19" transform="translate(451.000000, 267.000000) scale(1, -1) translate(-451.000000, -267.000000) "></line>
                    <line x1="60.5" y1="401" x2="60.5" y2="174.5" id="Path-5-Copy-17" transform="translate(60.500000, 288.000000) scale(1, -1) translate(-60.500000, -288.000000) "></line>
                    <line x1="90.5" y1="414" x2="90.5" y2="131.5" id="Path-5-Copy-16" transform="translate(90.500000, 273.000000) scale(1, -1) translate(-90.500000, -273.000000) "></line>
                    <line x1="120.5" y1="354" x2="120.5" y2="55" id="Path-5-Copy-15" transform="translate(120.500000, 204.500000) scale(1, -1) translate(-120.500000, -204.500000) "></line>
                    <line x1="180.5" y1="282" x2="180.5" y2="1" id="Path-5-Copy-13" transform="translate(180.500000, 141.500000) scale(1, -1) translate(-180.500000, -141.500000) "></line>
                    <line x1="360.5" y1="281.25" x2="360.5" y2="171.75" id="Path-5-Copy-7" transform="translate(360.500000, 226.250000) scale(1, -1) translate(-360.500000, -226.250000) "></line>
                    <line x1="330.5" y1="310.25" x2="330.5" y2="174.75" id="Path-5-Copy-8" transform="translate(330.500000, 242.250000) scale(1, -1) translate(-330.500000, -242.250000) "></line>
                    <line x1="1220.5" y1="291.245667" x2="1500.92689" y2="291.245667" id="Path-5-Copy-25" transform="translate(1360.926887, 291.372833) scale(1, -1) translate(-1360.926887, -291.372833) "></line>
                    <line x1="1311.78656" y1="320.872833" x2="1517.5" y2="320.5" id="Path-5-Copy-26" transform="translate(1414.713443, 321.000000) scale(1, -1) translate(-1414.713443, -321.000000) "></line>
                    <line x1="1361.78656" y1="350.872833" x2="1517.5" y2="350.5" id="Path-5-Copy-26" transform="translate(1439.713443, 351.000000) scale(1, -1) translate(-1439.713443, -351.000000) "></line>
                    <line x1="1431.78656" y1="380.872833" x2="1501.5" y2="380.5" id="Path-5-Copy-27" transform="translate(1466.713443, 381.000000) scale(1, -1) translate(-1466.713443, -381.000000) "></line>
                    <line x1="494.5" y1="323.245667" x2="707.5" y2="323.245667" id="Path-5-Copy-28" transform="translate(601.000000, 322.872833) scale(1, -1) translate(-601.000000, -322.872833) "></line>
                    <line x1="41.5" y1="323.245667" x2="138" y2="323.245667" id="Path-5-Copy-29" transform="translate(90.000000, 322.872833) scale(1, -1) translate(-90.000000, -322.872833) "></line>
                    <line x1="41.5" y1="352.5" x2="101" y2="352.372833" id="Path-5-Copy-30" transform="translate(71.500000, 352.000000) scale(1, -1) translate(-71.500000, -352.000000) "></line>
                    <line x1="41.5" y1="382.5" x2="71" y2="382.372833" id="Path-5-Copy-31" transform="translate(56.500000, 382.000000) scale(1, -1) translate(-56.500000, -382.000000) "></line>
                    <line x1="41.5" y1="412.5" x2="51" y2="412.372833" id="Path-5-Copy-32" transform="translate(46.500000, 412.000000) scale(1, -1) translate(-46.500000, -412.000000) "></line>
                </g>
                <g id="Group-13" transform="translate(441.000000, 107.000000)">
                    <line x1="340.5" y1="203" x2="340.5" y2="64.5" id="Path-5-Copy-2" transform="translate(340.500000, 133.500000) scale(1, -1) translate(-340.500000, -133.500000) "></line>
                    <line x1="280.5" y1="215" x2="280.5" y2="79.5" id="Path-5-Copy-8" transform="translate(280.500000, 147.000000) scale(1, -1) translate(-280.500000, -147.000000) "></line>
                    <line x1="0.5" y1="63.2456666" x2="363.5" y2="63.2456666" id="Path-5-Copy" transform="translate(182.000000, 63.372833) scale(1, -1) translate(-182.000000, -63.372833) "></line>
                    <line x1="220.5" y1="215" x2="220.5" y2="86.5" id="Path-5-Copy-10" transform="translate(220.500000, 150.500000) scale(1, -1) translate(-220.500000, -150.500000) "></line>
                    <line x1="310.5" y1="215" x2="310.5" y2="105.5" id="Path-5-Copy-7" transform="translate(310.500000, 160.000000) scale(1, -1) translate(-310.500000, -160.000000) "></line>
                    <line x1="371.5" y1="214.5" x2="371" y2="44.5" id="Path-5-Copy-18" transform="translate(371.500000, 129.500000) scale(1, -1) translate(-371.500000, -129.500000) "></line>
                    <line x1="70.5" y1="247.25" x2="70.5" y2="12.75" id="Path-5-Copy-15" transform="translate(70.500000, 129.750000) scale(1, -1) translate(-70.500000, -129.750000) "></line>
                    <line x1="40.5" y1="210.25" x2="40.5" y2="0.75" id="Path-5-Copy-16" transform="translate(40.500000, 105.250000) scale(1, -1) translate(-40.500000, -105.250000) "></line>
                    <line x1="130.5" y1="247.25" x2="130.5" y2="77.75" id="Path-5-Copy-13" transform="translate(130.500000, 162.250000) scale(1, -1) translate(-130.500000, -162.250000) "></line>
                    <line x1="160.5" y1="262.25" x2="160.5" y2="79.75" id="Path-5-Copy-12" transform="translate(160.500000, 170.750000) scale(1, -1) translate(-160.500000, -170.750000) "></line>
                    <line x1="190.5" y1="226.25" x2="190.5" y2="68.75" id="Path-5-Copy-11" transform="translate(190.500000, 147.250000) scale(1, -1) translate(-190.500000, -147.250000) "></line>
                    <line x1="250.5" y1="244" x2="250.5" y2="86" id="Path-5-Copy-9" transform="translate(250.500000, 165.000000) scale(1, -1) translate(-250.500000, -165.000000) "></line>
                    <line x1="100.5" y1="220.25" x2="100.5" y2="14.75" id="Path-5-Copy-14" transform="translate(100.500000, 117.250000) scale(1, -1) translate(-100.500000, -117.250000) "></line>
                </g>
                <g id="Group-13" transform="translate(772.000000, 53.000000)">
                    <line x1="0.5" y1="117.245667" x2="363.5" y2="117.245667" id="Path-5-Copy" transform="translate(182.000000, 117.372833) scale(1, -1) translate(-182.000000, -117.372833) "></line>
                    <line x1="371.5" y1="222" x2="371" y2="52" id="Path-5-Copy-18" transform="translate(371.500000, 137.000000) scale(1, -1) translate(-371.500000, -137.000000) "></line>
                    <line x1="100.5" y1="221.25" x2="100.5" y2="15.75" id="Path-5-Copy-14" transform="translate(100.500000, 118.250000) scale(1, -1) translate(-100.500000, -118.250000) "></line>
                    <line x1="70.5" y1="235.25" x2="70.5" y2="0.75" id="Path-5-Copy-15" transform="translate(70.500000, 117.750000) scale(1, -1) translate(-70.500000, -117.750000) "></line>
                    <line x1="130.5" y1="202.25" x2="130.5" y2="32.75" id="Path-5-Copy-13" transform="translate(130.500000, 117.250000) scale(1, -1) translate(-130.500000, -117.250000) "></line>
                    <line x1="160.5" y1="235.25" x2="160.5" y2="52.75" id="Path-5-Copy-12" transform="translate(160.500000, 143.750000) scale(1, -1) translate(-160.500000, -143.750000) "></line>
                    <line x1="190.5" y1="221.25" x2="190.5" y2="63.75" id="Path-5-Copy-11" transform="translate(190.500000, 142.250000) scale(1, -1) translate(-190.500000, -142.250000) "></line>
                    <line x1="220.5" y1="201" x2="220.5" y2="31" id="Path-5-Copy-10" transform="translate(220.500000, 116.000000) scale(1, -1) translate(-220.500000, -116.000000) "></line>
                    <line x1="250.5" y1="221" x2="250.5" y2="85" id="Path-5-Copy-9" transform="translate(250.500000, 153.000000) scale(1, -1) translate(-250.500000, -153.000000) "></line>
                    <line x1="280.5" y1="214.25" x2="280.5" y2="78.75" id="Path-5-Copy-8" transform="translate(280.500000, 146.250000) scale(1, -1) translate(-280.500000, -146.250000) "></line>
                    <line x1="310.5" y1="198.25" x2="310.5" y2="88.75" id="Path-5-Copy-7" transform="translate(310.500000, 143.250000) scale(1, -1) translate(-310.500000, -143.250000) "></line>
                    <line x1="340.5" y1="211.25" x2="340.5" y2="72.75" id="Path-5-Copy-2" transform="translate(340.500000, 141.750000) scale(1, -1) translate(-340.500000, -141.750000) "></line>
                </g>
                <g id="Group-13" transform="translate(1073.000000, 67.000000)">
                    <line x1="0.5" y1="103.245667" x2="212.5" y2="103.245667" id="Path-5-Copy" transform="translate(106.500000, 103.372833) scale(1, -1) translate(-106.500000, -103.372833) "></line>
                    <line x1="220.5" y1="255" x2="220.5" y2="126.5" id="Path-5-Copy-10" transform="translate(220.500000, 190.500000) scale(1, -1) translate(-220.500000, -190.500000) "></line>
                    <line x1="371.5" y1="344.5" x2="371" y2="127" id="Path-5-Copy-18" transform="translate(371.500000, 235.500000) scale(1, -1) translate(-371.500000, -235.500000) "></line>
                    <line x1="401.5" y1="367.25" x2="401.75" y2="126.75" id="Path-5-Copy-24" transform="translate(401.250000, 246.750000) scale(1, -1) translate(-401.250000, -246.750000) "></line>
                    <line x1="280.5" y1="270.75" x2="280.5" y2="135.25" id="Path-5-Copy-8" transform="translate(280.500000, 202.750000) scale(1, -1) translate(-280.500000, -202.750000) "></line>
                    <line x1="100.5" y1="206.25" x2="100.5" y2="0.75" id="Path-5-Copy-14" transform="translate(100.500000, 103.250000) scale(1, -1) translate(-100.500000, -103.250000) "></line>
                    <line x1="130.5" y1="236.25" x2="130.5" y2="66.75" id="Path-5-Copy-13" transform="translate(130.500000, 151.250000) scale(1, -1) translate(-130.500000, -151.250000) "></line>
                    <line x1="160.5" y1="250.25" x2="160.5" y2="67.75" id="Path-5-Copy-12" transform="translate(160.500000, 158.750000) scale(1, -1) translate(-160.500000, -158.750000) "></line>
                    <line x1="190.5" y1="292.25" x2="190.5" y2="134.75" id="Path-5-Copy-11" transform="translate(190.500000, 213.250000) scale(1, -1) translate(-190.500000, -213.250000) "></line>
                    <line x1="250.5" y1="318.5" x2="250.5" y2="135" id="Path-5-Copy-9" transform="translate(250.500000, 226.500000) scale(1, -1) translate(-250.500000, -226.500000) "></line>
                    <line x1="310.5" y1="312" x2="310.5" y2="126.75" id="Path-5-Copy-7" transform="translate(310.500000, 219.250000) scale(1, -1) translate(-310.500000, -219.250000) "></line>
                    <line x1="340.5" y1="295.25" x2="340.5" y2="156.75" id="Path-5-Copy-2" transform="translate(340.500000, 225.750000) scale(1, -1) translate(-340.500000, -225.750000) "></line>
                </g>
            </g>
        </g>
    </g>
</svg>