<svg fill="none" height="42" viewBox="0 0 121 42" width="121" xmlns="http://www.w3.org/2000/svg" xmlns:xlink="http://www.w3.org/1999/xlink"><clipPath id="a"><path d="m0 0h120.26v42h-120.26z"/></clipPath><g clip-path="url(#a)"><rect fill="#2a8635" height="42" rx="4" width="120.26"/><g fill="#fff"><path d="m12.0703 35.0892h-1.6824v-20.2113c0-1.9404 1.2946-2.4599 2.7205-2.4599h4.3779c5.5035 0 7.0233 3.042 7.0233 8.5502s-1.5323 8.6128-7.0358 8.6128h-5.4035zm0-7.0292h5.4035c4.5342 0 5.2784-2.8793 5.2784-7.0918s-.7442-7.0292-5.2784-7.0292h-4.3403c-.6817 0-1.0382.194-1.0382 1.1642z"/><path d="m41.2767 12.418c2.8456 0 4.1089 1.5898 4.1089 4.3064v10.5907c0 1.521-.419 2.2659-2.5016 2.2659h-6.5668c-3.3959 0-4.628-1.6149-4.628-5.1827s1.2508-5.0826 4.628-5.0826h7.4111v-2.8793c0-1.2956-.6255-2.5037-2.4266-2.5037h-8.3179v-1.5147zm-5.4098 8.4187c-2.0701 0-2.4266 1.4898-2.4266 3.5616s.3565 3.6617 2.4266 3.6617h7.0483c.1063.011.2137-.0011.3148-.0357s.1935-.0907.2708-.1645.1377-.1635.177-.263c.0392-.0994.0565-.2062.0505-.313v-6.4471z"/><path d="m53.7848 29.581v-22.66498h1.6823v22.66498zm11.2573 0-6.9983-6.4221c-.7368-.6186-1.2017-1.5018-1.2946-2.4599.041-.479.1798-.9445.4079-1.3676.228-.4232.5405-.7949.918-1.0923l6.2102-5.8337h2.264l-7.4423 6.9979c-.1882.1513-.3415.3415-.4494.5576-.1079.216-.168.4529-.176.6943.0857.6385.4208 1.2169.9318 1.6087l7.8926 7.3171z"/><path d="m73.6164 9.43927v-2.50372h1.8074v2.50372zm.0625 2.97943h1.6823v17.163h-1.6823z"/><path d="m83.8042 18.3142c0-3.887 1.8449-5.8962 5.7287-5.8962h1.1507v1.521h-1.1632c-2.9144 0-4.0464 1.521-4.0464 4.7633v10.8787h-1.6698z"/><path d="m105.693 12.418c2.846 0 4.109 1.5898 4.109 4.3064v10.5907c0 1.521-.425 2.2659-2.501 2.2659h-6.611c-3.3958 0-4.6279-1.6149-4.6279-5.1827s1.2508-5.0826 4.6279-5.0826h7.411v-2.8793c0-1.2956-.625-2.5037-2.426-2.5037h-8.3183v-1.5147zm-5.434 8.4187c-2.0767 0-2.427 1.4898-2.427 3.5616s.3503 3.6617 2.427 3.6617h7.048c.106.011.214-.0011.315-.0357s.193-.0907.27-.1645c.078-.0738.138-.1635.177-.263.04-.0994.057-.2062.051-.313v-6.4471z"/></g></g></svg>