<svg width="28" height="28" viewBox="0 0 28 28" fill="none" xmlns="http://www.w3.org/2000/svg">
<g id="Tech logo">
<path id="Vector" d="M13.9947 21.7168C12.467 21.7168 10.9736 21.2643 9.70342 20.4164C8.4332 19.5684 7.44319 18.3632 6.85857 16.9532C6.27395 15.5431 6.12098 13.9914 6.41903 12.4945C6.71705 10.9976 7.45271 9.6226 8.53295 8.54338C9.61318 7.46415 10.9895 6.7292 12.4878 6.43144C13.9861 6.13369 15.5392 6.28651 16.9505 6.87057C18.362 7.45464 19.5684 8.44374 20.417 9.71276C21.2658 10.9818 21.7188 12.4738 21.7188 14C21.7167 16.046 20.9023 18.0077 19.4542 19.4544C18.006 20.9011 16.0426 21.7147 13.9947 21.7168ZM22.9891 2.7577L22.8716 2.91439L22.7539 3.07108L22.5971 2.95355L22.4481 2.83604C20.6762 1.49853 18.6112 0.601179 16.4238 0.218039C14.2364 -0.1651 11.9891 -0.0230427 9.86739 0.632489C7.74573 1.28802 5.81051 2.43824 4.22145 3.98819C2.63239 5.53816 1.43506 7.44344 0.728242 9.54681C0.0214437 11.6502 -0.174563 13.8913 0.156402 16.0853C0.487364 18.2793 1.33583 20.3632 2.63173 22.1649C3.92765 23.9668 5.63387 25.4348 7.60959 26.4481C9.58532 27.4613 11.7739 27.9905 13.9947 27.9921C17.0493 28.001 20.021 27.0012 22.4481 25.1483L22.5971 25.0386L22.7539 24.9133L22.8716 25.0779L22.9891 25.2344C23.5176 25.9631 24.1881 26.5774 24.9603 27.0405C25.7324 27.5037 26.5903 27.806 27.4825 27.9296L28 28V0L27.4825 0.0705094C26.5911 0.193448 25.7336 0.494802 24.9616 0.95653C24.1896 1.41826 23.5187 2.03087 22.9891 2.7577Z" fill="white"/>
</g>
</svg>
