<svg width="28" height="28" viewBox="0 0 28 28" fill="none" xmlns="http://www.w3.org/2000/svg">
<g id="Group 449">
<path id="Vector" d="M14 28C21.732 28 28 21.732 28 14C28 6.26801 21.732 0 14 0C6.26801 0 0 6.26801 0 14C0 21.732 6.26801 28 14 28Z" fill="white"/>
<path id="Vector_2" d="M20.6371 19.4961L15.0371 6.11832C14.8296 5.7035 14.5185 5.49609 14.2074 5.49609C13.7926 5.49609 13.4815 5.7035 13.2741 6.11832L7.25928 20.8442H9.33335L11.7185 14.8294L18.9778 20.6368C19.2889 20.8442 19.4963 20.9479 19.7037 20.9479C20.2222 20.9479 20.7408 20.5331 20.7408 19.9109C20.7408 19.8072 20.6371 19.7035 20.6371 19.4961ZM14.2074 8.5035L17.8371 17.422L12.3408 13.1702L14.2074 8.5035Z" fill="black"/>
</g>
</svg>
