<svg width="48" height="49" viewBox="0 0 48 49" fill="none" xmlns="http://www.w3.org/2000/svg">
<path d="M16.8762 41.2237C14.7176 39.2077 14.046 35.0797 14.9574 32.0557C16.5404 33.9757 18.699 34.5517 20.9535 34.9357C24.4073 35.4157 27.813 35.2237 31.0269 33.6397L32.1782 32.9677C32.466 33.8317 32.5619 34.7437 32.418 35.6557C32.1782 37.8157 31.0749 39.4957 29.348 40.7917C28.6765 41.3197 27.909 41.7517 27.1894 42.2317C24.9829 43.7677 24.4073 45.4957 25.2707 48.0397V48.3277C24.2223 47.8616 23.337 47.0927 22.7283 46.1197C22.0953 45.114 21.7624 43.9482 21.769 42.7597C21.769 42.1837 21.769 41.5597 21.673 40.9837C21.4812 39.5437 20.8096 38.9197 19.5144 38.8717C18.912 38.8374 18.3176 39.0227 17.8413 39.3934C17.365 39.7641 17.0392 40.295 16.9241 40.8877L16.8762 41.2237Z" fill="url(#paint0_linear_1177_77812)"/>
<path d="M4.5 31.5276C4.5 31.5276 10.9278 28.4076 17.3556 28.4076L22.2005 13.3836C22.3924 12.6636 22.92 12.1836 23.4956 12.1836C24.1192 12.1836 24.6469 12.6636 24.8388 13.3836L29.6356 28.4076C37.3106 28.4076 42.5392 31.5276 42.5392 31.5276L31.6024 1.76764C31.3145 0.903637 30.7869 0.327637 30.0674 0.327637H16.9719C16.2524 0.327637 15.7727 0.903637 15.4369 1.76764L4.5 31.5276Z" fill="white"/>
<defs>
<linearGradient id="paint0_linear_1177_77812" x1="14.5615" y1="40.1917" x2="32.4842" y2="40.1917" gradientUnits="userSpaceOnUse">
<stop stop-color="#DE3766"/>
<stop offset="1" stop-color="#EF40F5"/>
</linearGradient>
</defs>
</svg>
