<svg width="48" height="48" viewBox="0 0 48 48" fill="none" xmlns="http://www.w3.org/2000/svg">
<path d="M48 0H0V48H48V0Z" fill="black"/>
<path d="M7.7765 3.75H4.22332C3.96191 3.75 3.74999 3.96192 3.74999 4.22333V43.7753C3.74999 44.0367 3.96191 44.2486 4.22332 44.2486H7.7765C8.03792 44.2486 8.24983 44.0367 8.24983 43.7753V4.22333C8.24983 3.96192 8.03792 3.75 7.7765 3.75Z" fill="white"/>
<path d="M16.7768 3.75H13.2236C12.9622 3.75 12.7503 3.96192 12.7503 4.22333V43.7753C12.7503 44.0367 12.9622 44.2486 13.2236 44.2486H16.7768C17.0382 44.2486 17.2501 44.0367 17.2501 43.7753V4.22333C17.2501 3.96192 17.0382 3.75 16.7768 3.75Z" fill="white"/>
<path d="M25.777 3.75H22.2238C21.9624 3.75 21.7505 3.96192 21.7505 4.22333V43.7753C21.7505 44.0367 21.9624 44.2486 22.2238 44.2486H25.777C26.0384 44.2486 26.2503 44.0367 26.2503 43.7753V4.22333C26.2503 3.96192 26.0384 3.75 25.777 3.75Z" fill="white"/>
<path d="M34.775 3.75H31.2218C30.9604 3.75 30.7485 3.96192 30.7485 4.22333V43.7753C30.7485 44.0367 30.9604 44.2486 31.2218 44.2486H34.775C35.0364 44.2486 35.2483 44.0367 35.2483 43.7753V4.22333C35.2483 3.96192 35.0364 3.75 34.775 3.75Z" fill="white"/>
<path d="M43.7772 19.5004H40.224C39.9626 19.5004 39.7507 19.7123 39.7507 19.9737V28.0268C39.7507 28.2882 39.9626 28.5001 40.224 28.5001H43.7772C44.0386 28.5001 44.2505 28.2882 44.2505 28.0268V19.9737C44.2505 19.7123 44.0386 19.5004 43.7772 19.5004Z" fill="white"/>
</svg>
