<svg width="28" height="28" viewBox="0 0 28 28" fill="none" xmlns="http://www.w3.org/2000/svg">
<path d="M21.168 10.8903C21.726 10.6401 22.2562 10.3322 22.75 9.9715V12.25C22.75 12.7558 22.3773 13.3945 21.4323 14.0122C22.4737 13.9535 23.5165 14.1022 24.5 14.4497V7C24.5 5.23775 22.9688 3.92875 21.168 3.10975C19.2885 2.25575 16.7528 1.75 14 1.75C11.2473 1.75 8.7115 2.25575 6.832 3.10975C5.03125 3.92875 3.5 5.23775 3.5 7V22.75C3.5 24.5122 5.03125 25.8212 6.832 26.6402C8.7115 27.4925 11.2473 28 14 28C14.938 28 15.8515 27.9405 16.7213 27.8302C16.1748 27.3573 15.6961 26.8115 15.2985 26.208C14.8738 26.236 14.441 26.25 14 26.25C11.438 26.25 9.1595 25.7775 7.5565 25.0477C5.873 24.2812 5.25 23.4027 5.25 22.75V20.4715C5.72425 20.825 6.265 21.133 6.832 21.3902C8.7115 22.2425 11.2473 22.75 14 22.75H14.0473C13.9837 22.1684 13.9837 21.5816 14.0473 21H14C11.438 21 9.1595 20.5275 7.5565 19.7977C5.873 19.0312 5.25 18.1527 5.25 17.5V15.2215C5.72425 15.575 6.265 15.883 6.832 16.1402C8.7115 16.9925 11.2473 17.5 14 17.5C14.4585 17.5 14.91 17.486 15.3545 17.458C15.8755 16.6891 16.5284 16.0184 17.283 15.477C16.2715 15.652 15.1655 15.75 14 15.75C11.438 15.75 9.1595 15.2775 7.5565 14.5477C5.873 13.7812 5.25 12.9027 5.25 12.25V9.9715C5.72425 10.325 6.265 10.633 6.832 10.8903C8.7115 11.7443 11.2473 12.25 14 12.25C16.7528 12.25 19.2885 11.7443 21.168 10.8903ZM5.25 7C5.25 6.3455 5.873 5.46875 7.5565 4.70225C9.1595 3.97425 11.438 3.5 14 3.5C16.562 3.5 18.8405 3.9725 20.4435 4.70225C22.127 5.46875 22.75 6.34725 22.75 7C22.75 7.6545 22.127 8.53125 20.4435 9.29775C18.8405 10.0258 16.562 10.5 14 10.5C11.438 10.5 9.1595 10.0275 7.5565 9.29775C5.873 8.53125 5.25 7.65275 5.25 7Z" fill="white"/>
<path d="M20.8001 16.555C21.1151 15.4822 22.6341 15.4822 22.9508 16.555L23.0261 16.814C23.0731 16.9746 23.1555 17.1227 23.2672 17.2473C23.379 17.372 23.5173 17.4699 23.6719 17.5341C23.8265 17.5982 23.9936 17.6268 24.1607 17.6179C24.3279 17.609 24.4909 17.5627 24.6378 17.4825L24.8758 17.353C25.8576 16.8175 26.9321 17.892 26.3983 18.8737L26.2671 19.1117C26.1872 19.2586 26.1411 19.4215 26.1324 19.5884C26.1236 19.7553 26.1524 19.9221 26.2165 20.0765C26.2806 20.2309 26.3784 20.369 26.5029 20.4807C26.6273 20.5923 26.7752 20.6747 26.9356 20.7217L27.1963 20.8005C28.2673 21.1155 28.2673 22.6345 27.1963 22.9512L26.9338 23.0265C26.7735 23.0739 26.6258 23.1566 26.5015 23.2685C26.3773 23.3805 26.2797 23.5188 26.216 23.6734C26.1522 23.8279 26.1238 23.9948 26.133 24.1618C26.1421 24.3288 26.1885 24.4916 26.2688 24.6382L26.3983 24.8762C26.9321 25.858 25.8576 26.9325 24.8758 26.3987L24.6378 26.2675C24.491 26.1876 24.3281 26.1416 24.1612 26.1328C23.9942 26.1241 23.8274 26.1528 23.673 26.2169C23.5186 26.281 23.3805 26.3789 23.2689 26.5033C23.1573 26.6277 23.0749 26.7756 23.0278 26.936L22.9491 27.1967C22.6341 28.2677 21.1151 28.2677 20.7983 27.1967L20.7231 26.9342C20.6757 26.7739 20.593 26.6262 20.481 26.502C20.3691 26.3777 20.2308 26.2802 20.0762 26.2164C19.9216 26.1526 19.7547 26.1243 19.5878 26.1334C19.4208 26.1426 19.258 26.189 19.1113 26.2692L18.8733 26.3987C17.8916 26.9325 16.8171 25.858 17.3508 24.8762L17.4821 24.6382C17.562 24.4914 17.608 24.3285 17.6167 24.1616C17.6255 23.9946 17.5968 23.8278 17.5326 23.6735C17.4685 23.5191 17.3707 23.381 17.2463 23.2693C17.1218 23.1577 16.974 23.0753 16.8136 23.0282L16.5546 22.9495C15.4818 22.6345 15.4818 21.1155 16.5546 20.7987L16.8136 20.7235C16.9742 20.6765 17.1223 20.5941 17.2469 20.4823C17.3715 20.3705 17.4695 20.2323 17.5336 20.0776C17.5978 19.923 17.6264 19.756 17.6175 19.5888C17.6086 19.4217 17.5623 19.2587 17.4821 19.1117L17.3526 18.8737C16.8171 17.892 17.8916 16.8175 18.8733 17.3512L19.1113 17.4825C19.2582 17.5624 19.421 17.6084 19.588 17.6172C19.7549 17.6259 19.9217 17.5972 20.0761 17.5331C20.2305 17.469 20.3686 17.3711 20.4802 17.2467C20.5919 17.1222 20.6743 16.9744 20.7213 16.814L20.8001 16.555ZM24.4996 21.875C24.4996 22.2197 24.4317 22.5611 24.2997 22.8795C24.1678 23.198 23.9745 23.4874 23.7307 23.7311C23.487 23.9749 23.1976 24.1683 22.8791 24.3002C22.5606 24.4321 22.2193 24.5 21.8746 24.5C21.5298 24.5 21.1885 24.4321 20.87 24.3002C20.5515 24.1683 20.2622 23.9749 20.0184 23.7311C19.7747 23.4874 19.5813 23.198 19.4494 22.8795C19.3175 22.5611 19.2496 22.2197 19.2496 21.875C19.2496 21.1788 19.5261 20.5111 20.0184 20.0188C20.5107 19.5266 21.1784 19.25 21.8746 19.25C22.5708 19.25 23.2384 19.5266 23.7307 20.0188C24.223 20.5111 24.4996 21.1788 24.4996 21.875Z" fill="white"/>
</svg>
