<svg width="48" height="48" viewBox="0 0 48 48" fill="none" xmlns="http://www.w3.org/2000/svg">
<path d="M24 48C10.7225 48 0 37.2775 0 24C0 10.7225 10.7225 0 24 0C37.2775 0 48 10.7225 48 24C48 37.2775 37.2775 48 24 48Z" fill="black"/>
<path d="M36.8322 20.4404H32.124V27.5457H36.8322C38.7843 27.5457 40.4063 25.9237 40.4063 23.9715C40.4063 22.005 38.7843 20.4404 36.8322 20.4404Z" fill="#FFF100"/>
<path d="M9.05762 24.0001C9.05762 29.4834 13.5217 33.9475 19.005 33.9475C24.4882 33.9475 28.9524 29.4834 28.9524 24.0001C28.9524 18.5168 24.4882 14.0527 19.005 14.0527C13.5217 14.0527 9.05762 18.5168 9.05762 24.0001Z" fill="#FFF100"/>
</svg>
