<svg width="28" height="28" viewBox="0 0 28 28" fill="none" xmlns="http://www.w3.org/2000/svg">
<path d="M13.8035 13.4927C13.8036 12.3895 14.242 11.3315 15.0221 10.5515C15.8022 9.77149 16.8602 9.33329 17.9634 9.33329H18.5651C19.1823 9.32646 19.7947 9.44212 20.3668 9.67357C20.939 9.90503 21.4596 10.2477 21.8984 10.6817C22.3372 11.1157 22.6856 11.6324 22.9234 12.202C23.1612 12.7716 23.2836 13.3826 23.2836 13.9998C23.2836 14.617 23.1612 15.2281 22.9234 15.7977C22.6856 16.3672 22.3372 16.884 21.8984 17.318C21.4596 17.752 20.939 18.0946 20.3668 18.3261C19.7947 18.5575 19.1823 18.6732 18.5651 18.6663H17.9634C16.8603 18.6662 15.8025 18.2279 15.0225 17.4479C14.2425 16.6679 13.8042 15.61 13.804 14.507L13.8035 13.4927Z" fill="white" fill-opacity="0.6"/>
<path d="M4.375 23.3338C4.375 22.0961 4.86668 20.9091 5.74188 20.0339C6.61707 19.1587 7.8041 18.667 9.04181 18.667H13.8035V23.2858C13.8035 25.8898 11.6692 28 9.06524 28C6.48812 28 4.375 25.9109 4.375 23.3338Z" fill="#24CB71"/>
<path d="M13.8035 0.000285734V9.33334H18.5651C19.1823 9.34017 19.7947 9.22451 20.3668 8.99306C20.939 8.7616 21.4596 8.41896 21.8984 7.98495C22.3372 7.55095 22.6856 7.03421 22.9234 6.46464C23.1612 5.89508 23.2836 5.28401 23.2836 4.66681C23.2836 4.04961 23.1612 3.43854 22.9234 2.86898C22.6856 2.29942 22.3372 1.78268 21.8984 1.34867C21.4596 0.914665 20.939 0.572019 20.3668 0.340567C19.7947 0.109115 19.1823 -0.00654375 18.5651 0.000285734H13.8035Z" fill="#FF7237"/>
<path d="M4.375 4.66624C4.375 5.90396 4.86668 7.09098 5.74188 7.96617C6.61707 8.84137 7.8041 9.33305 9.04181 9.33305H13.8035V0H9.04181C7.80419 -9.2775e-09 6.61726 0.491602 5.74208 1.36668C4.8669 2.24175 4.37515 3.42862 4.375 4.66624Z" fill="#FF3737"/>
<path d="M4.375 14.0002C4.375 15.2379 4.86668 16.425 5.74188 17.3002C6.61707 18.1754 7.8041 18.667 9.04181 18.667H13.8035V9.33398H9.04181C7.80419 9.33398 6.61726 9.82559 5.74208 10.7007C4.8669 11.5757 4.37515 12.7626 4.375 14.0002Z" fill="#874FFF"/>
</svg>
