<svg width="48" height="48" viewBox="0 0 48 48" fill="none" xmlns="http://www.w3.org/2000/svg">
<path fill-rule="evenodd" clip-rule="evenodd" d="M23.9996 3.10464L42.0956 13.5523V34.4477L23.9996 44.8954L5.90365 34.4477V13.5523L23.9996 3.10464ZM7.93405 14.7245V30.073L21.2262 7.05024L7.93405 14.7245ZM23.9996 6.3072L8.67709 32.8464H39.3222L23.9996 6.3072ZM37.2918 34.8768H10.7075L23.9996 42.551L37.2918 34.8768ZM40.0653 30.073L26.7731 7.05024L40.0653 14.7245V30.073Z" fill="#E10098"/>
<path d="M6.91645 18.4128C9.27846 18.4128 11.1932 16.498 11.1932 14.136C11.1932 11.774 9.27846 9.8592 6.91645 9.8592C4.55444 9.8592 2.63965 11.774 2.63965 14.136C2.63965 16.498 4.55444 18.4128 6.91645 18.4128Z" fill="#E10098"/>
<path d="M6.91645 38.1384C9.27846 38.1384 11.1932 36.2236 11.1932 33.8616C11.1932 31.4996 9.27846 29.5848 6.91645 29.5848C4.55444 29.5848 2.63965 31.4996 2.63965 33.8616C2.63965 36.2236 4.55444 38.1384 6.91645 38.1384Z" fill="#E10098"/>
<path d="M23.9996 48C26.3617 48 28.2764 46.0852 28.2764 43.7232C28.2764 41.3612 26.3617 39.4464 23.9996 39.4464C21.6376 39.4464 19.7228 41.3612 19.7228 43.7232C19.7228 46.0852 21.6376 48 23.9996 48Z" fill="#E10098"/>
<path d="M41.0804 38.1384C43.4425 38.1384 45.3573 36.2236 45.3573 33.8616C45.3573 31.4996 43.4425 29.5848 41.0804 29.5848C38.7184 29.5848 36.8037 31.4996 36.8037 33.8616C36.8037 36.2236 38.7184 38.1384 41.0804 38.1384Z" fill="#E10098"/>
<path d="M41.0804 18.4152C43.4425 18.4152 45.3573 16.5004 45.3573 14.1384C45.3573 11.7764 43.4425 9.8616 41.0804 9.8616C38.7184 9.8616 36.8037 11.7764 36.8037 14.1384C36.8037 16.5004 38.7184 18.4152 41.0804 18.4152Z" fill="#E10098"/>
<path d="M23.9996 8.5536C26.3617 8.5536 28.2764 6.63881 28.2764 4.2768C28.2764 1.91479 26.3617 0 23.9996 0C21.6376 0 19.7228 1.91479 19.7228 4.2768C19.7228 6.63881 21.6376 8.5536 23.9996 8.5536Z" fill="#E10098"/>
</svg>
