<svg width="28" height="26" viewBox="0 0 28 26" fill="none" xmlns="http://www.w3.org/2000/svg">
<path d="M18.3364 1.88241C18.3701 1.77256 18.382 1.65713 18.3711 1.54272C18.3603 1.4283 18.327 1.31714 18.2733 1.21557C18.2195 1.11401 18.1462 1.02403 18.0576 0.950783C17.9691 0.877534 17.867 0.822445 17.7571 0.788663C17.6473 0.75488 17.5318 0.743065 17.4174 0.753892C17.303 0.764719 17.1918 0.797976 17.0903 0.851765C16.9887 0.905553 16.8987 0.978819 16.8255 1.06738C16.7522 1.15594 16.6971 1.25806 16.6634 1.36791L9.66336 24.1179C9.59513 24.3398 9.61783 24.5796 9.72646 24.7848C9.83509 24.9899 10.0208 25.1434 10.2426 25.2117C10.4645 25.2799 10.7043 25.2572 10.9094 25.1486C11.1146 25.0399 11.2681 24.8543 11.3364 24.6324L18.3364 1.88241ZM8.49436 6.25566C8.57584 6.33694 8.64049 6.4335 8.6846 6.5398C8.72871 6.64611 8.75142 6.76007 8.75142 6.87516C8.75142 6.99026 8.72871 7.10422 8.6846 7.21052C8.64049 7.31683 8.57584 7.41338 8.49436 7.49466L2.98711 13.0002L8.49436 18.5057C8.65866 18.67 8.75096 18.8928 8.75096 19.1252C8.75096 19.3575 8.65866 19.5804 8.49436 19.7447C8.33005 19.909 8.10721 20.0013 7.87486 20.0013C7.6425 20.0013 7.41966 19.909 7.25536 19.7447L1.13036 13.6197C1.04887 13.5384 0.984219 13.4418 0.940108 13.3355C0.895997 13.2292 0.873291 13.1153 0.873291 13.0002C0.873291 12.8851 0.895997 12.7711 0.940108 12.6648C0.984219 12.5585 1.04887 12.4619 1.13036 12.3807L7.25536 6.25566C7.33664 6.17418 7.43319 6.10953 7.5395 6.06542C7.6458 6.0213 7.75976 5.9986 7.87486 5.9986C7.98995 5.9986 8.10391 6.0213 8.21021 6.06542C8.31652 6.10953 8.41308 6.17418 8.49436 6.25566ZM19.5054 6.25566C19.4239 6.33694 19.3592 6.4335 19.3151 6.5398C19.271 6.64611 19.2483 6.76007 19.2483 6.87516C19.2483 6.99026 19.271 7.10422 19.3151 7.21052C19.3592 7.31683 19.4239 7.41338 19.5054 7.49466L25.0126 13.0002L19.5054 18.5057C19.424 18.587 19.3595 18.6836 19.3154 18.7899C19.2714 18.8962 19.2488 19.0101 19.2488 19.1252C19.2488 19.2402 19.2714 19.3541 19.3154 19.4604C19.3595 19.5667 19.424 19.6633 19.5054 19.7447C19.5867 19.826 19.6833 19.8906 19.7896 19.9346C19.8959 19.9786 20.0098 20.0013 20.1249 20.0013C20.2399 20.0013 20.3538 19.9786 20.4601 19.9346C20.5664 19.8906 20.663 19.826 20.7444 19.7447L26.8694 13.6197C26.9508 13.5384 27.0155 13.4418 27.0596 13.3355C27.1037 13.2292 27.1264 13.1153 27.1264 13.0002C27.1264 12.8851 27.1037 12.7711 27.0596 12.6648C27.0155 12.5585 26.9508 12.4619 26.8694 12.3807L20.7444 6.25566C20.6631 6.17418 20.5665 6.10953 20.4602 6.06542C20.3539 6.0213 20.2399 5.9986 20.1249 5.9986C20.0098 5.9986 19.8958 6.0213 19.7895 6.06542C19.6832 6.10953 19.5866 6.17418 19.5054 6.25566Z" fill="white"/>
</svg>
