<svg width="48" height="48" viewBox="0 0 48 48" fill="none" xmlns="http://www.w3.org/2000/svg">
<path d="M37.9016 4.35043C28.1268 -2.48566 14.8183 -1.14142 6.60975 7.51067C-1.59914 16.1628 -2.23546 29.5168 5.1132 38.9095L12.4504 33.5268C8.80826 29.0112 8.06877 22.8126 10.546 17.5675C13.0231 12.3224 18.2816 8.95349 24.0844 8.89392V14.6238L37.9016 4.35043Z" fill="#43C9ED"/>
<path d="M10.0985 43.6496C19.8732 50.4857 33.1817 49.1414 41.3903 40.4893C49.5991 31.8372 50.2355 18.4832 42.8868 9.09049L35.5496 14.4732C39.1917 18.9888 39.9312 25.1874 37.454 30.4325C34.9768 35.6776 29.7184 39.0465 23.9156 39.1061V33.3762L10.0985 43.6496Z" fill="#0194E2"/>
</svg>
