<svg width="28" height="28" viewBox="0 0 28 28" fill="none" xmlns="http://www.w3.org/2000/svg">
<g id="Tech logo">
<path id="Vector" fill-rule="evenodd" clip-rule="evenodd" d="M2.84482 19.219C2.55584 18.7697 2.55147 18.1974 2.83356 17.7438L13.4548 0.665623C14.0456 -0.284257 15.4721 -0.201202 15.9453 0.810617L25.6483 21.5584C26.0083 22.3282 25.5939 23.234 24.7702 23.4776L9.67636 27.9411C9.06907 28.1206 8.41473 27.88 8.07527 27.3521L2.84482 19.219ZM14.6803 5.65913C14.7826 5.15673 15.481 5.08429 15.6872 5.55467L22.3803 20.8209C22.5062 21.1084 22.3494 21.4398 22.045 21.5293L11.6164 24.598C11.2331 24.7108 10.8659 24.3806 10.9446 23.994L14.6803 5.65913Z" fill="white"/>
</g>
</svg>
