<svg width="48" height="48" viewBox="0 0 48 48" fill="none" xmlns="http://www.w3.org/2000/svg">
<path fill-rule="evenodd" clip-rule="evenodd" d="M44.1357 36.4093C40.429 42.4045 35.4329 46.0279 29.4819 46.0279C20.8913 46.0279 17.8187 38.3185 17.3715 32.0123C14.1877 36.315 10.6083 40.779 6.21728 45.7579C5.74931 46.2302 5.34819 46.5 4.88023 46.5C3.34263 46.5 0.200558 39.6186 0 37.0547C1.31942 34.9886 9.63647 25.7667 16.3326 18.3422C18.6864 15.7325 20.8398 13.3448 22.4186 11.568C18.3178 12.8168 14.0896 15.3073 8.75767 19.1762C7.82174 19.8509 5.21449 13.7114 5.28135 8.98877C11.4318 4.40105 20.7911 1.5 28.3455 1.5C38.9082 1.5 44.9917 7.43705 44.9917 15.6679C44.9917 22.5496 39.3092 30.1057 31.0195 30.3757C26.7091 30.4885 23.9465 28.0468 22.5337 25.0314C22.7025 29.6949 25.1052 35.4356 31.5544 35.4356C38.585 35.4356 41.9612 31.1526 46.9962 24.765L44.1357 36.4093ZM36.9695 16.1403C36.9695 20.1207 33.092 22.0772 29.5488 22.0772C27.6548 22.0772 26.1998 21.5753 25.0494 20.9232C26.9649 17.9959 28.8629 15.0014 30.8749 11.8271L30.8894 11.8042L31.5137 10.8194C35.4838 11.4975 36.9695 13.7246 36.9695 16.1403Z" fill="#FF4438"/>
</svg>
