<svg width="28" height="28" viewBox="0 0 28 28" fill="none" xmlns="http://www.w3.org/2000/svg">
<g id="icon / outline / braces">
<path id="Vector" d="M3.6995 14.1103V13.825C5.45825 13.6465 6.31925 12.7488 6.31925 11.025V7.88025C6.31925 5.96575 7.00175 5.18875 8.68875 5.18875H9.1665V3.5H8.5085C5.6875 3.5 4.3575 4.82825 4.3575 7.616V10.283C4.3575 12.1975 3.6995 12.831 1.75 12.831V15.1043C3.6995 15.1043 4.3575 15.7378 4.3575 17.6523V20.3193C4.3575 23.107 5.68575 24.4353 8.5085 24.4353H9.1665V22.7483H8.68875C7.00175 22.7483 6.31925 21.9713 6.31925 20.0568V16.9103C6.31925 15.1883 5.45825 14.2905 3.6995 14.1103ZM24.3005 13.825V14.1103C22.5417 14.2905 21.6807 15.1883 21.6807 16.9103V20.0568C21.6807 21.9713 20.9982 22.7483 19.3112 22.7483H18.8335V24.4353H19.4915C22.3142 24.4353 23.6425 23.107 23.6425 20.3193V17.6523C23.6425 15.7378 24.3005 15.1043 26.25 15.1043V12.831C24.3005 12.831 23.6425 12.1975 23.6425 10.283V7.616C23.6425 4.82825 22.3125 3.5 19.4915 3.5H18.8335V5.187H19.3112C20.9982 5.187 21.6807 5.964 21.6807 7.8785V11.025C21.6807 12.747 22.5417 13.6448 24.3005 13.825Z" fill="white"/>
</g>
</svg>
