<svg width="28" height="28" viewBox="0 0 28 28" fill="none" xmlns="http://www.w3.org/2000/svg">
<g id="Tech logo">
<g id="Vector">
<path d="M23.4638 12.7723C23.4062 12.9729 23.3422 13.1717 23.2724 13.3668C23.1991 13.572 23.1202 13.7736 23.0338 13.9724L20.1442 13.912C20.1442 13.9705 20.1442 14.0281 20.1423 14.0866L27.9965 14.251C28.0067 13.7875 27.9945 13.325 27.9584 12.8661L23.4629 12.7723H23.4638Z" fill="white"/>
<path d="M17.4004 0.352955L17.3215 0.548939C17.7571 0.712413 18.1788 0.906537 18.5847 1.12667L15.7899 8.05479C15.9598 8.10681 16.1298 8.16718 16.2979 8.23499C16.3063 8.23871 16.3146 8.24148 16.3221 8.2452L19.2599 0.961337C19.2516 0.957622 19.2432 0.954835 19.2358 0.95112C18.6302 0.706839 18.0172 0.508071 17.4004 0.352955Z" fill="white"/>
<path d="M20.2101 2.22826C20.5603 2.51897 20.891 2.83293 21.1993 3.16823L17.2119 8.69475C17.3512 8.78019 17.4868 8.87029 17.6168 8.96503L22.2137 2.59513C21.7204 2.23847 21.1993 1.91059 20.6522 1.61615L20.2101 2.22919V2.22826Z" fill="white"/>
<path d="M22.3205 4.63765C22.5582 5.0166 22.7709 5.41228 22.9576 5.82284L18.4268 9.67097C18.5215 9.76942 18.6125 9.87066 18.7008 9.97562L24.688 4.89029C24.3174 4.45188 23.9188 4.03485 23.4935 3.64194L22.3214 4.63765H22.3205Z" fill="white"/>
<path d="M25.7405 6.3095L23.5232 7.4148C23.6346 7.83928 23.7192 8.27491 23.7751 8.71981L19.3556 10.923C19.4095 11.0196 19.4615 11.1171 19.5098 11.2156L26.5382 7.71203C26.2996 7.22998 26.0329 6.76184 25.7394 6.3095H25.7405Z" fill="white"/>
<path d="M23.8521 10.2134C23.8428 10.6537 23.8047 11.0883 23.7396 11.5138L19.9408 12.3664C19.9621 12.4482 19.9825 12.5299 20.0002 12.6126L27.664 10.8924C27.5544 10.4038 27.4197 9.92175 27.2591 9.44805L23.8521 10.2125V10.2134Z" fill="white"/>
<path d="M27.7894 16.3502L22.5518 14.9421C22.3548 15.2885 22.1384 15.6238 21.9034 15.9433L19.9603 15.4213C19.9491 15.465 19.938 15.5077 19.9259 15.5514L27.5107 17.5901C27.623 17.1777 27.715 16.7644 27.7885 16.3492L27.7894 16.3502Z" fill="white"/>
<path d="M21.3117 16.6762C21.0721 16.9465 20.8176 17.2037 20.5501 17.4462L19.4206 16.8229C19.403 16.8564 19.3844 16.8898 19.3658 16.9232L26.2429 20.7175C26.4277 20.3822 26.6005 20.0376 26.7602 19.6828L21.3108 16.6762H21.3117Z" fill="white"/>
<path d="M19.8943 17.9942C19.6361 18.192 19.3677 18.3769 19.0909 18.5496L18.5568 18.0564C18.5373 18.0787 18.5169 18.1 18.4964 18.1224L24.2664 23.4529C24.5023 23.1993 24.729 22.9355 24.9463 22.6625L19.8943 17.9951V17.9942Z" fill="white"/>
<path d="M22.4476 25.0961L18.3905 18.9472C18.2299 19.0298 18.0673 19.1079 17.902 19.1822C17.902 19.1822 17.6038 19.3103 17.536 19.3382L21.6888 25.631C21.948 25.4611 22.2006 25.2826 22.4485 25.0961H22.4476Z" fill="white"/>
<path d="M16.8468 19.5853C16.7781 19.6066 16.3425 19.7329 16.2134 19.7645C16.2134 19.7645 16.0917 19.7942 16.0583 19.8017L18.6636 27.1292C18.92 27.0382 19.1735 26.9407 19.4243 26.8348L16.8468 19.5843V19.5853Z" fill="white"/>
<path d="M15.2809 19.941C15.0524 19.9902 14.8211 20.0255 14.587 20.0487L15.371 27.8647C15.6041 27.8417 15.8363 27.8129 16.0667 27.7785L15.2809 19.9419V19.941Z" fill="white"/>
<path d="M13.6916 20.0692C13.4965 20.059 13.3015 20.0404 13.1065 20.0116L11.9965 27.7887C12.1906 27.8164 12.3857 27.8406 12.5798 27.8612L13.6916 20.0701V20.0692Z" fill="white"/>
<path d="M4.53616 15.0925C4.59376 14.8919 4.65785 14.6931 4.7275 14.4981C4.80089 14.2928 4.87984 14.0912 4.96622 13.8925L7.85579 13.9529C7.85579 13.8943 7.85579 13.8368 7.85765 13.7782L0.00349008 13.6138C-0.006727 14.0773 0.00534774 14.5399 0.0415719 14.9987L4.53709 15.0925H4.53616Z" fill="white"/>
<path d="M10.6005 27.5118L10.6794 27.3158C10.2438 27.1525 9.82212 26.9582 9.41621 26.7382L12.2111 19.81C12.0411 19.758 11.8711 19.6976 11.703 19.6298C11.6946 19.6261 11.6863 19.6233 11.6788 19.6196L8.74096 26.9035C8.74931 26.9073 8.75769 26.9099 8.76511 26.9137C9.37071 27.158 9.98372 27.3568 10.6005 27.5118Z" fill="white"/>
<path d="M7.78986 25.6366C7.43969 25.3459 7.10901 25.0318 6.80064 24.6966L10.7881 19.1701C10.6488 19.0846 10.5132 18.9945 10.3831 18.8998L5.78637 25.2697C6.27958 25.6264 6.80064 25.9542 7.34773 26.2487L7.78986 25.6357V25.6366Z" fill="white"/>
<path d="M5.67955 23.2272C5.44178 22.8482 5.22907 22.4525 5.04238 22.042L9.57321 18.1939C9.47846 18.0954 9.38743 17.9942 9.29919 17.8892L3.31197 22.9745C3.68259 23.4129 4.08105 23.83 4.50646 24.223L5.67864 23.2272H5.67955Z" fill="white"/>
<path d="M2.26054 21.5553L4.47766 20.45C4.36618 20.0255 4.28167 19.5899 4.22593 19.145L8.6453 16.9418C8.59143 16.8452 8.53941 16.7477 8.49112 16.6492L1.46175 20.1528C1.70046 20.6348 1.96703 21.103 2.26054 21.5553Z" fill="white"/>
<path d="M4.14791 17.6515C4.15719 17.2112 4.19527 16.7765 4.26029 16.3511L8.0592 15.4984C8.03785 15.4167 8.0174 15.335 7.99975 15.2523L0.336 16.9715C0.445602 17.4601 0.580281 17.9422 0.740968 18.4159L4.14884 17.6515H4.14791Z" fill="white"/>
<path d="M0.210619 11.5147L5.44827 12.9228C5.64519 12.5763 5.8616 12.241 6.0966 11.9215L8.03971 12.4435C8.05085 12.3998 8.06199 12.3571 8.07406 12.3135L0.488339 10.2738C0.37595 10.6861 0.283997 11.0995 0.210619 11.5147Z" fill="white"/>
<path d="M6.68826 11.1886C6.92791 10.9184 7.1824 10.6611 7.4499 10.4186L8.57935 11.0419C8.59701 11.0085 8.61559 10.975 8.63416 10.9416L1.75712 7.1464C1.57229 7.48171 1.39952 7.8263 1.23977 8.1811L6.68919 11.1877L6.68826 11.1886Z" fill="white"/>
<path d="M8.10659 9.87064C8.3648 9.67279 8.63323 9.48795 8.91001 9.3152L9.4441 9.80839C9.46359 9.7861 9.48404 9.76475 9.50446 9.74246L3.7346 4.41192C3.49867 4.66548 3.27204 4.92928 3.05468 5.20234L8.10659 9.86971V9.87064Z" fill="white"/>
<path d="M5.55323 2.76884L9.61035 8.91768C9.77103 8.835 9.93359 8.75698 10.0989 8.68268C10.0989 8.68268 10.3971 8.5545 10.4649 8.52663L6.31301 2.23383C6.05386 2.40381 5.80123 2.58214 5.55323 2.76884Z" fill="white"/>
<path d="M11.1531 8.27957C11.2219 8.2582 11.6575 8.13188 11.7866 8.10031C11.7866 8.10031 11.9083 8.07058 11.9417 8.06316L9.33634 0.73563C9.07999 0.826655 8.82643 0.924184 8.57565 1.03007L11.1531 8.2805V8.27957Z" fill="white"/>
<path d="M12.7192 7.92382C12.9476 7.8746 13.1789 7.83931 13.413 7.81609L12.63 0C12.3968 0.0232208 12.1646 0.0520144 11.9343 0.086381L12.7201 7.92289L12.7192 7.92382Z" fill="white"/>
<path d="M14.3093 7.79564C14.5044 7.80586 14.6994 7.82444 14.8945 7.85322L16.0035 0.0761533C15.8094 0.0482886 15.6143 0.0241391 15.4202 0.00370479L14.3084 7.79471L14.3093 7.79564Z" fill="white"/>
</g>
</g>
</svg>
