<svg width="48" height="48" viewBox="0 0 48 48" fill="none" xmlns="http://www.w3.org/2000/svg">
<path fill-rule="evenodd" clip-rule="evenodd" d="M36.9366 37.3399C36.8256 37.1046 36.774 36.984 36.7127 36.8712C35.0867 33.8219 33.4645 30.7687 31.825 27.7271C31.6586 27.4229 31.6797 27.2411 31.9054 26.981C34.4918 24.0005 37.0647 21.0086 39.6415 18.0186C39.7314 17.9153 39.8137 17.8024 39.8481 17.6169C39.0944 17.8101 38.3407 18.0014 37.5889 18.1984C34.4631 19.0153 31.3372 19.8302 28.2152 20.6566C27.9244 20.7331 27.7924 20.6509 27.6471 20.4118C25.8737 17.4887 24.0889 14.5714 22.306 11.6541C22.2141 11.501 22.1147 11.3537 21.9195 11.2275C21.7761 12.006 21.6288 12.7846 21.4891 13.5632L20.0027 21.8159C19.9492 22.1143 19.8746 22.4089 19.8497 22.7093C19.8229 22.9924 19.6775 23.0976 19.4154 23.1779C15.7329 24.3181 12.0542 25.4697 8.37363 26.6213C8.21293 26.6711 8.05416 26.7361 7.88199 26.8911L16.9572 30.4492C16.8463 30.5353 16.7736 30.6023 16.6932 30.6558C14.8109 31.8572 12.9246 33.0528 11.0499 34.2599C10.8242 34.4034 10.6463 34.4244 10.3937 34.3116C8.14598 33.3149 5.88864 32.3355 3.63896 31.3426C2.62698 30.8969 1.71831 30.3058 1.0105 29.4526C-0.590677 27.5204 -0.275031 25.3243 1.85796 23.9814C2.5562 23.5414 3.3501 23.2143 4.13825 22.9599C7.74616 21.8006 11.3675 20.6834 14.9849 19.5605C15.2891 19.4667 15.4307 19.3328 15.4861 19.0095C15.9682 16.2548 16.4694 13.5058 16.9706 10.755C17.2404 9.28577 17.3838 7.77641 18.1089 6.43158C18.3882 5.91124 18.721 5.4043 19.1189 4.97005C20.5537 3.39756 22.5604 3.33635 24.0793 4.83614C24.592 5.34117 25.032 5.93802 25.4146 6.54827C27.0865 9.23985 28.7336 11.9487 30.3692 14.6594C30.5644 14.9827 30.7385 15.0458 31.0962 14.9521C35.1326 13.8846 39.1729 12.8344 43.2112 11.7822C44.0453 11.5641 44.887 11.4857 45.7421 11.6426C47.6053 11.9869 48.4203 13.3834 47.789 15.1587C47.502 15.966 47.0066 16.6508 46.4499 17.2936C43.632 20.5648 40.818 23.836 37.9906 27.0977C37.7592 27.3655 37.7534 27.5568 37.9141 27.8552C39.6014 30.9925 41.2733 34.1356 42.9529 37.2767C43.3547 38.0285 43.6607 38.8071 43.6703 39.6718C43.6894 41.6364 42.2356 43.2434 40.2556 43.5284C39.1461 43.6891 38.1169 43.4557 37.08 43.1401C34.5491 42.3672 32.0144 41.6097 29.4778 40.8579C29.2425 40.7871 29.1526 40.6972 29.1124 40.4466C28.8197 38.6866 28.5022 36.9305 28.1942 35.1724C28.1865 35.1246 28.1999 35.073 28.2076 34.9639L36.9366 37.3399Z" fill="#E25A1C"/>
</svg>
