<svg width="28" height="28" viewBox="0 0 28 28" fill="none" xmlns="http://www.w3.org/2000/svg">
<g id="Tech logo" clip-path="url(#clip0_650_73459)">
<path id="Vector" d="M19.7969 0H8.20312C3.67266 0 0 3.67266 0 8.20312V19.7969C0 24.3273 3.67266 28 8.20312 28H19.7969C24.3273 28 28 24.3273 28 19.7969V8.20312C28 3.67266 24.3273 0 19.7969 0Z" fill="#398CCB"/>
<path id="Vector_2" fill-rule="evenodd" clip-rule="evenodd" d="M13.9697 4.10156L17.8567 6.34419V7.57728L22.5615 10.2943V14.9419L23.8236 15.6705V20.1583L19.9391 22.4008L18.2145 21.4035L14.0214 23.8244L9.85347 21.4175L8.15307 22.4008L4.26855 20.1544V15.6705L5.48137 14.9703V10.2943L10.0852 7.63645L10.0878 7.63634V6.34419L13.9697 4.10156ZM17.8567 8.74338V10.8294L13.9722 13.072L10.0878 10.8294V8.80119L10.0852 8.8013L6.49096 10.8773V14.3874L8.15307 13.4279L12.0375 15.6705V20.1544L10.8623 20.834L14.0214 22.6583L17.2057 20.8202L16.0545 20.1544V15.6705L19.9391 13.4279L21.5519 14.359V10.8773L17.8567 8.74338ZM17.0642 19.5764V16.8391L19.4342 18.2072V20.9445L17.0642 19.5764ZM22.8139 16.8353L20.4439 18.2034V20.9445L22.8139 19.5727V16.8353ZM5.27817 19.5727V16.8353L7.64825 18.2034V20.9407L5.27817 19.5727ZM11.0279 16.8353L8.65784 18.2034V20.9407L11.0279 19.5727V16.8353ZM17.569 15.9645L19.9391 14.5965L22.3091 15.9645L19.9391 17.3339L17.569 15.9645ZM8.15307 14.5927L5.78297 15.9645L8.15307 17.33L10.5231 15.9645L8.15307 14.5927ZM11.0973 10.2464V7.50903L13.4649 8.8783V11.6144L11.0973 10.2464ZM16.8446 7.50903L14.477 8.8783V11.6131L16.8446 10.2464V7.50903ZM11.6022 6.63567L13.9697 5.26767L16.3398 6.63567L13.9697 8.00373L11.6022 6.63567Z" fill="white"/>
</g>
<defs>
<clipPath id="clip0_650_73459">
<rect width="28" height="28" fill="white"/>
</clipPath>
</defs>
</svg>
