<svg width="29" height="28" viewBox="0 0 29 28" fill="none" xmlns="http://www.w3.org/2000/svg">
<g id="Tech logo">
<path id="Vector" d="M9.4203 27.678C12.9007 27.678 15.7222 24.8565 15.7222 21.3761C15.7222 17.8957 12.9007 15.0742 9.4203 15.0742C5.93986 15.0742 3.11841 17.8957 3.11841 21.3761C3.11841 24.8565 5.93986 27.678 9.4203 27.678Z" fill="#FF6600"/>
<path id="Vector_2" d="M21.8731 18.8635C25.3535 18.8635 28.1749 16.0421 28.1749 12.5617C28.1749 9.08122 25.3535 6.25977 21.8731 6.25977C18.3926 6.25977 15.5712 9.08122 15.5712 12.5617C15.5712 16.0421 18.3926 18.8635 21.8731 18.8635Z" fill="#FFCC00"/>
<path id="Vector_3" d="M6.47694 18.72C9.95737 18.72 12.7788 15.8985 12.7788 12.4181C12.7788 8.93766 9.95737 6.11621 6.47694 6.11621C2.9965 6.11621 0.175049 8.93766 0.175049 12.4181C0.175049 15.8985 2.9965 18.72 6.47694 18.72Z" fill="#0089CC"/>
<path id="Vector_4" d="M19.0731 27.678C22.5536 27.678 25.375 24.8565 25.375 21.3761C25.375 17.8957 22.5536 15.0742 19.0731 15.0742C15.5927 15.0742 12.7712 17.8957 12.7712 21.3761C12.7712 24.8565 15.5927 27.678 19.0731 27.678Z" fill="#009939"/>
<path id="Vector_5" d="M14.1751 13.1204C17.6555 13.1204 20.4769 10.2989 20.4769 6.81849C20.4769 3.33805 17.6555 0.516602 14.1751 0.516602C10.6946 0.516602 7.87317 3.33805 7.87317 6.81849C7.87317 10.2989 10.6946 13.1204 14.1751 13.1204Z" fill="#BF0000"/>
<path id="Vector_6" d="M15.5787 12.5619C15.5787 12.6977 15.5938 12.826 15.6014 12.9543C18.3938 12.3128 20.4769 9.81473 20.4769 6.82605C20.4769 6.6902 20.4618 6.5619 20.4542 6.43359C17.6618 7.0751 15.5787 9.57322 15.5787 12.5619Z" fill="#FC0007"/>
<path id="Vector_7" d="M16.4089 15.6783C17.4957 17.5726 19.5335 18.8556 21.8731 18.8556C22.8316 18.8556 23.7297 18.6367 24.5372 18.2594C23.4504 16.365 21.4127 15.082 19.0731 15.082C18.1221 15.082 17.2165 15.2934 16.4089 15.6783Z" fill="#1CD306"/>
<path id="Vector_8" d="M12.7788 21.3766C12.7788 22.9162 13.3298 24.32 14.2505 25.4143C15.1637 24.32 15.7222 22.9087 15.7222 21.3766C15.7222 19.837 15.1713 18.4332 14.2505 17.3389C13.3298 18.4332 12.7788 19.837 12.7788 21.3766Z" fill="#0F7504"/>
<path id="Vector_9" d="M3.98633 18.1987C4.74859 18.5308 5.59388 18.712 6.4769 18.712C8.79388 18.712 10.8165 17.4516 11.9109 15.5874C11.1486 15.2554 10.3033 15.0742 9.4203 15.0742C7.09577 15.0818 5.08067 16.3346 3.98633 18.1987Z" fill="#0C5E87"/>
<path id="Vector_10" d="M7.90336 6.29004C7.88826 6.46362 7.87317 6.64476 7.87317 6.81834C7.87317 9.80702 9.95619 12.2976 12.7486 12.9466C12.7637 12.7731 12.7788 12.5919 12.7788 12.4183C12.7788 9.42966 10.6958 6.9391 7.90336 6.29004Z" fill="#6B0001"/>
<path id="Vector_11" d="M8.49194 20.5994H7.50327C6.63534 20.5994 5.9259 19.8976 5.9259 19.0296V10.1089C5.9259 9.24095 6.63534 8.53906 7.50327 8.53906H19.858C20.7259 8.53906 21.4353 9.2485 21.4353 10.1089V19.0221C21.4353 19.89 20.7259 20.5919 19.858 20.5919H15.6467L7.20138 24.7277L8.49194 20.5994Z" fill="white"/>
</g>
</svg>
