<svg width="48" height="48" viewBox="0 0 48 48" fill="none" xmlns="http://www.w3.org/2000/svg">
<path d="M36.0825 33.1061H42.0413V18.8066L35.3279 12.0969L31.1143 16.3082L36.0825 21.2737V33.1061ZM42.057 36.0917H33.3783H21.2722L16.304 31.1261L18.4107 29.0205L22.5142 33.1218H30.9571L22.64 24.7935L24.7625 22.6722L33.0796 30.9847V22.5465L28.9918 18.4609L31.0829 16.371L20.7534 6H10.5653H0L5.94301 11.9398V11.9555H5.97445H18.2692L22.6243 16.3082L16.2568 22.6722L11.9017 18.3195V14.9411H5.94301V20.7866L16.2568 31.0947L12.059 35.2903L18.7724 42H28.9604H48L42.057 36.0917Z" fill="white"/>
</svg>
