<svg width="28" height="28" viewBox="0 0 28 28" fill="none" xmlns="http://www.w3.org/2000/svg">
<path fill-rule="evenodd" clip-rule="evenodd" d="M1.75 14.0001C1.75 13.7681 1.84219 13.5455 2.00628 13.3814C2.17038 13.2173 2.39294 13.1251 2.625 13.1251H23.2628L17.7555 7.61963C17.5912 7.45533 17.4989 7.23249 17.4989 7.00013C17.4989 6.76777 17.5912 6.54493 17.7555 6.38063C17.9198 6.21633 18.1426 6.12402 18.375 6.12402C18.6074 6.12402 18.8302 6.21633 18.9945 6.38063L25.9945 13.3806C26.076 13.4619 26.1406 13.5585 26.1847 13.6648C26.2289 13.7711 26.2516 13.885 26.2516 14.0001C26.2516 14.1152 26.2289 14.2292 26.1847 14.3355C26.1406 14.4418 26.076 14.5383 25.9945 14.6196L18.9945 21.6196C18.8302 21.7839 18.6074 21.8762 18.375 21.8762C18.1426 21.8762 17.9198 21.7839 17.7555 21.6196C17.5912 21.4553 17.4989 21.2325 17.4989 21.0001C17.4989 20.7678 17.5912 20.5449 17.7555 20.3806L23.2628 14.8751H2.625C2.39294 14.8751 2.17038 14.7829 2.00628 14.6188C1.84219 14.4548 1.75 14.2322 1.75 14.0001Z" fill="white"/>
</svg>
