<svg width="25" height="24" viewBox="0 0 25 24" fill="none" xmlns="http://www.w3.org/2000/svg">
<path fill-rule="evenodd" clip-rule="evenodd" d="M4.25 18C4.25 17.8011 4.32902 17.6103 4.46967 17.4697C4.61032 17.329 4.80109 17.25 5 17.25H20C20.1989 17.25 20.3897 17.329 20.5303 17.4697C20.671 17.6103 20.75 17.8011 20.75 18C20.75 18.1989 20.671 18.3897 20.5303 18.5303C20.3897 18.671 20.1989 18.75 20 18.75H5C4.80109 18.75 4.61032 18.671 4.46967 18.5303C4.32902 18.3897 4.25 18.1989 4.25 18ZM4.25 12C4.25 11.8011 4.32902 11.6103 4.46967 11.4697C4.61032 11.329 4.80109 11.25 5 11.25H20C20.1989 11.25 20.3897 11.329 20.5303 11.4697C20.671 11.6103 20.75 11.8011 20.75 12C20.75 12.1989 20.671 12.3897 20.5303 12.5303C20.3897 12.671 20.1989 12.75 20 12.75H5C4.80109 12.75 4.61032 12.671 4.46967 12.5303C4.32902 12.3897 4.25 12.1989 4.25 12ZM4.25 6C4.25 5.80109 4.32902 5.61032 4.46967 5.46967C4.61032 5.32902 4.80109 5.25 5 5.25H20C20.1989 5.25 20.3897 5.32902 20.5303 5.46967C20.671 5.61032 20.75 5.80109 20.75 6C20.75 6.19891 20.671 6.38968 20.5303 6.53033C20.3897 6.67098 20.1989 6.75 20 6.75H5C4.80109 6.75 4.61032 6.67098 4.46967 6.53033C4.32902 6.38968 4.25 6.19891 4.25 6Z" fill="white"/>
</svg>
